<?xml version="1.0" encoding="UTF-8"?>
<svg version="1.1" xmlns="http://www.w3.org/2000/svg" width="500" height="500">
<path d="M0 0 C-0.76344964 3.42216651 -2.07157761 6.334724 -3.62768555 9.47875977 C-15.15212786 32.81701648 -20.17723995 58.25124731 -23 84 C-23.15662109 85.42626709 -23.15662109 85.42626709 -23.31640625 86.88134766 C-25.15830393 104.86607961 -25.20832118 122.87647552 -25.25 140.9375 C-25.25526703 142.13004395 -25.26053406 143.32258789 -25.26596069 144.55126953 C-25.27767736 147.98091685 -25.27435442 151.41019378 -25.265625 154.83984375 C-25.26957779 155.87620468 -25.27353058 156.91256561 -25.27760315 157.98033142 C-25.229752 165.44126913 -23.88061899 170.744555 -20.19921875 177.28125 C-19.64000732 178.27809814 -19.0807959 179.27494629 -18.50463867 180.30200195 C-17.90498291 181.35734131 -17.30532715 182.41268066 -16.6875 183.5 C-16.07173096 184.5933667 -15.45596191 185.6867334 -14.8215332 186.81323242 C-10.011197 195.31731818 -5.0672563 203.73974218 -0.00073242 212.09375 C0.51126709 212.94582031 1.0232666 213.79789063 1.55078125 214.67578125 C2.22620972 215.7882019 2.22620972 215.7882019 2.9152832 216.9230957 C3.97639525 218.95480404 4.55087987 220.76072053 5 223 C4.34 223.33 3.68 223.66 3 224 C1.3269043 223.32250977 1.3269043 223.32250977 -0.67578125 222.19140625 C-1.4140918 221.77858398 -2.15240234 221.36576172 -2.91308594 220.94042969 C-4.1007959 220.25835449 -4.1007959 220.25835449 -5.3125 219.5625 C-6.13137695 219.09875977 -6.95025391 218.63501953 -7.79394531 218.15722656 C-13.96107698 214.64454827 -20.05426981 211.02687711 -26.05126953 207.22998047 C-28.38103852 205.75949987 -30.7202889 204.30452389 -33.05859375 202.84765625 C-50.35723926 192.0169615 -66.75995315 180.59327375 -82 167 C-83.33611328 165.83017578 -83.33611328 165.83017578 -84.69921875 164.63671875 C-98.51622106 152.42483131 -113.99897199 138.00308404 -120 120 C-121.22417001 98.55152124 -102.27975126 72.32619105 -88.6484375 56.953125 C-87.77445313 55.97859375 -86.90046875 55.0040625 -86 54 C-85.24976563 53.12859375 -84.49953125 52.2571875 -83.7265625 51.359375 C-64.19873064 28.94114204 -39.31396174 13.07032725 -11.5625 2.6875 C-10.5425293 2.29208008 -10.5425293 2.29208008 -9.50195312 1.88867188 C-6.08208419 0.60162443 -3.70707482 0 0 0 Z " fill="#7B3FE2" transform="translate(203,81)"/>
<path d="M0 0 C1.05441284 -0.01426025 1.05441284 -0.01426025 2.13012695 -0.02880859 C7.80400448 0.0080392 12.05005773 0.60261398 16.39453125 4.39453125 C26.64924849 16.00974166 34.6957016 28.59891393 41.9375 42.25 C42.44579346 43.20302002 42.44579346 43.20302002 42.96435547 44.17529297 C45.57865954 49.22174153 47.58486966 54.38151696 49.4375 59.75 C49.89032349 61.05614258 49.89032349 61.05614258 50.35229492 62.38867188 C61.35749873 94.74544829 63.44719334 130.00546469 54.9375 163.25 C53.6175 163.25 52.2975 163.25 50.9375 163.25 C50.5971875 162.57195312 50.256875 161.89390625 49.90625 161.1953125 C39.99111004 142.15613417 23.57890038 126.48944744 6.9375 113.25 C5.87313093 112.3629149 4.81070459 111.47349481 3.75 110.58203125 C-21.61627069 89.47004653 -61.10290525 57.82579636 -95.1640625 58.1875 C-96.00359467 58.19128662 -96.84312683 58.19507324 -97.70809937 58.19897461 C-101.25061424 58.21507751 -104.79300678 58.24307234 -108.33544922 58.27050781 C-119.29946623 58.34787692 -130.13269914 58.18214369 -141.0625 57.25 C-141.0625 56.26 -141.0625 55.27 -141.0625 54.25 C-138.91914689 52.71639389 -136.84773569 51.41592015 -134.5625 50.125 C-133.88759521 49.73320557 -133.21269043 49.34141113 -132.51733398 48.93774414 C-130.37196073 47.6972761 -128.21759709 46.47347927 -126.0625 45.25 C-124.73012574 44.48106279 -123.39808574 43.71154606 -122.06640625 42.94140625 C-113.64641715 38.10490264 -105.08748277 33.61440318 -96.35449219 29.37158203 C-93.83440897 28.13838408 -91.32792869 26.87943641 -88.8203125 25.62109375 C-61.34462476 11.981309 -31.01972909 0.34047265 0 0 Z " fill="#7A3DE2" transform="translate(366.0625,129.75)"/>
<path d="M0 0 C3.41116866 0.31979706 5.72969582 1.34181089 8.546875 3.17578125 C11.62628256 5.14251773 14.73264044 7.03684837 17.890625 8.875 C34.34176635 18.46076478 50.46633089 28.47969191 65.85546875 39.70703125 C67.99306903 41.26575345 70.13564074 42.80521629 72.30078125 44.32421875 C73.82251953 45.40123047 73.82251953 45.40123047 75.375 46.5 C76.26960938 47.1290625 77.16421875 47.758125 78.0859375 48.40625 C78.71757812 48.9321875 79.34921875 49.458125 80 50 C80 50.66 80 51.32 80 52 C80.59006836 52.2686084 81.18013672 52.5372168 81.78808594 52.81396484 C84.01025078 54.0054965 85.56250163 55.25164818 87.390625 56.9765625 C88.32515503 57.85260132 88.32515503 57.85260132 89.27856445 58.74633789 C90.25442505 59.67627563 90.25442505 59.67627563 91.25 60.625 C91.92313232 61.26236084 92.59626465 61.89972168 93.28979492 62.55639648 C94.61464033 63.81395019 95.93723018 65.07388532 97.25732422 66.33642578 C98.63253386 67.64921346 100.01928993 68.94990552 101.41015625 70.24609375 C110.55302552 78.97593813 124.35583732 94.12283884 125.2109375 107.234375 C123.59035305 136.16480859 95.66568531 167.77301793 75.36499023 186.36157227 C58.57030077 201.30840703 28.70576139 224 5 224 C5.76336735 220.57820234 7.07102841 217.66597029 8.62744141 214.52246094 C27.56547366 176.15789812 30.28099352 131.43651973 30.86499023 89.31542969 C30.91340755 86.68426674 30.98869891 84.05346379 31.09057617 81.42382812 C31.80602586 62.59104481 29.4019684 49.8315367 18.54721069 34.2278595 C16.47800603 31.24837048 14.62010288 28.1700566 12.75 25.0625 C11.84507812 23.61423828 11.84507812 23.61423828 10.921875 22.13671875 C8.54365169 18.25518761 6.25611037 14.32849333 4 10.375 C3.60135742 9.68672119 3.20271484 8.99844238 2.79199219 8.28930664 C0 3.35147961 0 3.35147961 0 0 Z " fill="#7A3EE2" transform="translate(292,195)"/>
<path d="M0 0 C0.54188965 0.44851318 1.0837793 0.89702637 1.64208984 1.35913086 C4.35514784 3.68831533 6.32904831 5.69770978 7.625 9.0625 C4.98921294 10.38039353 2.56300887 10.22129757 -0.3371582 10.30053711 C-44.32146998 11.62366711 -89.46306014 34.22597949 -126.26269531 56.77539062 C-128.57847297 58.18648399 -130.90932109 59.57048163 -133.2421875 60.953125 C-134.8701616 61.92646486 -136.49777437 62.90040937 -138.125 63.875 C-138.8763623 64.3191626 -139.62772461 64.7633252 -140.40185547 65.22094727 C-147.20848862 69.34164858 -151.63553742 73.95312751 -155.625 80.875 C-156.00994629 81.52952148 -156.39489258 82.18404297 -156.79150391 82.85839844 C-159.49620773 87.48026321 -162.12881299 92.14290605 -164.75 96.8125 C-165.112146 97.45614502 -165.47429199 98.09979004 -165.84741211 98.76293945 C-167.50250175 101.70863274 -169.15234656 104.65643473 -170.77685547 107.61914062 C-172.23382033 110.27450629 -173.70949816 112.91879895 -175.1875 115.5625 C-175.64366699 116.40651367 -176.09983398 117.25052734 -176.56982422 118.12011719 C-177.00697754 118.89516602 -177.44413086 119.67021484 -177.89453125 120.46875 C-178.27714111 121.16291016 -178.65975098 121.85707031 -179.05395508 122.57226562 C-179.4898999 123.06404297 -179.92584473 123.55582031 -180.375 124.0625 C-181.695 124.0625 -183.015 124.0625 -184.375 124.0625 C-185.17388782 -3.84558512 -185.17388782 -3.84558512 -153.375 -36.9375 C-150.7265625 -38.14453125 -150.7265625 -38.14453125 -148 -38.75 C-146.65808594 -39.06904297 -146.65808594 -39.06904297 -145.2890625 -39.39453125 C-93.619891 -49.02189698 -40.03650639 -33.30008046 0 0 Z " fill="#7A3EE2" transform="translate(364.375,115.9375)"/>
<path d="M0 0 C3.76518481 1.2550616 4.08412535 2.386277 6.0625 5.75 C17.02584184 23.40937879 31.4914983 38.40315131 48 51 C49.29616841 52.01225879 50.59169053 53.02534543 51.88671875 54.0390625 C74.8117239 71.88607851 99.40332063 87.26763625 125 101 C125.52536346 101.34362579 126.05072693 101.68725159 126.5920105 102.04129028 C133.15686581 105.96951056 139.87460804 105.60239578 147.34375 105.609375 C148.72239096 105.62437863 150.1010141 105.64111032 151.47961426 105.65948486 C155.08313891 105.70292686 158.68642121 105.72310537 162.29016113 105.73822021 C165.97743932 105.75787565 169.66445893 105.7998357 173.3515625 105.83984375 C180.56763842 105.91489439 187.78360495 105.9653371 195 106 C195 106.99 195 107.98 195 109 C193.32055664 110.35595703 193.32055664 110.35595703 190.91015625 111.7578125 C189.99782227 112.29229004 189.08548828 112.82676758 188.14550781 113.37744141 C187.12811523 113.95413574 186.11072266 114.53083008 185.0625 115.125 C183.99999023 115.7339209 182.93748047 116.3428418 181.84277344 116.97021484 C147.51470077 136.42017313 111.35634352 155.66791503 72 162 C70.91976562 162.18433594 69.83953125 162.36867188 68.7265625 162.55859375 C64.09208398 163.10754142 59.53748174 163.18405651 54.875 163.1875 C53.99457031 163.19974609 53.11414063 163.21199219 52.20703125 163.22460938 C45.68725354 163.23936 41.18092412 162.59623823 36.375 157.875 C7.24144431 127.47953889 -6.50458874 81.64879525 -6.23657227 40.36938477 C-5.47906623 5.47906623 -5.47906623 5.47906623 0 0 Z " fill="#7A3EE2" transform="translate(80,207)"/>
<path d="M0 0 C0.66 0 1.32 0 2 0 C2.70474161 7.12292413 3.09185412 14.1818741 3.078125 21.3359375 C3.07689636 22.11426941 3.07566772 22.89260132 3.07440186 23.69451904 C3.03264106 32.2242141 2.70021056 40.7330045 2.25 49.25 C2.18564758 50.47207657 2.18564758 50.47207657 2.11999512 51.71884155 C0.32168469 84.82004757 -3.34458048 120.20450303 -19.5 149.75 C-19.85553955 150.40621338 -20.2110791 151.06242676 -20.57739258 151.73852539 C-20.93341553 152.35590576 -21.28943848 152.97328613 -21.65625 153.609375 C-22.11741211 154.4132666 -22.11741211 154.4132666 -22.58789062 155.23339844 C-26.85328635 160.56956777 -30.92696255 162.81379002 -37.6328125 163.7890625 C-38.3675882 163.90617584 -39.10236389 164.02328918 -39.85940552 164.14395142 C-47.99288853 165.32451328 -56.12325601 165.45254713 -64.32861328 165.39111328 C-66.86676091 165.37505214 -69.40330671 165.39105807 -71.94140625 165.41015625 C-88.15110566 165.43353459 -103.65931535 163.27690001 -119.125 158.3125 C-120.22755127 157.96437256 -121.33010254 157.61624512 -122.46606445 157.25756836 C-142.18063746 150.85404005 -159.78808415 140.8748017 -176 128 C-176.55445801 127.56977539 -177.10891602 127.13955078 -177.68017578 126.69628906 C-179.38154529 125.37380201 -181.06748474 124.03386133 -182.75 122.6875 C-184.25820312 121.48673828 -184.25820312 121.48673828 -185.796875 120.26171875 C-188 118 -188 118 -188 114 C-187.36835938 113.97083496 -186.73671875 113.94166992 -186.0859375 113.91162109 C-150.73719143 112.10980281 -119.63109644 100.26885155 -88 85 C-86.86691406 84.46125244 -86.86691406 84.46125244 -85.7109375 83.91162109 C-69.45175903 76.1783101 -53.48586428 67.37512455 -38.3125 57.6875 C-36.66701172 56.64142578 -36.66701172 56.64142578 -34.98828125 55.57421875 C-28.13424826 49.66989491 -24.20819877 41.00516798 -19.875 33.1875 C-15.44236607 25.26581263 -10.92493857 17.40637768 -6.25 9.625 C-5.73679199 8.7693042 -5.22358398 7.9136084 -4.69482422 7.03198242 C-1.13650845 1.13650845 -1.13650845 1.13650845 0 0 Z " fill="#7A3EE2" transform="translate(317,260)"/>
<path d="M0 0 C1.20980196 4.18861946 0.83035007 8.01371879 0.44140625 12.3046875 C0.30065623 14.00719895 0.16046101 15.70975633 0.02075195 17.41235352 C-0.05444672 18.30463654 -0.12964539 19.19691956 -0.2071228 20.11624146 C-1.7395151 38.46658342 -2.41682815 56.58474595 -2 75 C0.475 74.505 0.475 74.505 3 74 C1.99667352 79.94074887 0.69087294 84.20186518 -3 89 C-3.99 88.67 -4.98 88.34 -6 88 C-6.18039618 59.11718437 -5.28976555 30.7165894 -2 2 C-1.34 2 -0.68 2 0 2 C0 1.34 0 0.68 0 0 Z " fill="#AC90D8" transform="translate(186,152)"/>
<path d="M0 0 C1.65 0 3.3 0 5 0 C5.33 0.66 5.66 1.32 6 2 C6.99 2.33 7.98 2.66 9 3 C9 3.66 9 4.32 9 5 C10.51207031 4.92458984 10.51207031 4.92458984 12.0546875 4.84765625 C16.2679695 5.01034734 19.20936819 5.91857909 23.125 7.4375 C29.1081152 9.73517334 34.08281306 11.14302581 40.5 11.125 C41.87671875 11.12886719 41.87671875 11.12886719 43.28125 11.1328125 C45.95004454 11.00244035 48.39865153 10.59378606 51 10 C51 10.66 51 11.32 51 12 C56.62584904 13.656453 62.55599401 13.42363078 68.375 13.625 C69.63602539 13.67003662 70.89705078 13.71507324 72.19628906 13.76147461 C80.54161855 14.02071663 88.6992738 14.01418647 97 13 C97.99 14.485 97.99 14.485 99 16 C93.70800638 16.87353782 88.59359596 17.17389566 83.234375 17.203125 C82.40149963 17.20882507 81.56862427 17.21452515 80.71051025 17.22039795 C78.94894664 17.22980709 77.18736575 17.23636559 75.42578125 17.24023438 C72.79914188 17.24982065 70.17332724 17.28083215 67.546875 17.3125 C50.80833141 17.42043723 35.19611908 15.21089395 19.25 10 C18.15429688 9.65710938 17.05859375 9.31421875 15.9296875 8.9609375 C10.48145884 7.23280686 5.19901091 5.3766907 0 3 C0 2.01 0 1.02 0 0 Z " fill="#7645CA" transform="translate(178,408)"/>
<path d="M0 0 C3.53586014 3.17320782 5.58578031 5.16743695 6 10 C6.78375 10.061875 7.5675 10.12375 8.375 10.1875 C9.24125 10.455625 10.1075 10.72375 11 11 C12.3125 13.5625 12.3125 13.5625 13 16 C12.34 16 11.68 16 11 16 C11 16.66 11 17.32 11 18 C11.66 18 12.32 18 13 18 C13.309375 18.94875 13.61875 19.8975 13.9375 20.875 C14.87394742 23.86080408 14.87394742 23.86080408 16 26 C16.99 26.33 17.98 26.66 19 27 C20.48436362 29.96872725 20.14734694 32.99269323 20.14526367 36.24780273 C20.14862228 36.99430084 20.1519809 37.74079895 20.15544128 38.50991821 C20.16496199 40.98449352 20.16689493 43.45900125 20.16796875 45.93359375 C20.17118046 47.64990772 20.17454446 49.36622141 20.17805481 51.08253479 C20.18404881 54.68304072 20.18589442 58.28352263 20.18530273 61.8840332 C20.18520107 66.50227555 20.19885608 71.12036429 20.21607494 75.73857021 C20.22718206 79.28413096 20.22922234 82.82965442 20.22869301 86.37523079 C20.22987497 88.07811068 20.23430877 89.78099148 20.24202538 91.48385429 C20.25179975 93.8636139 20.2489575 96.24303797 20.24291992 98.62280273 C20.24853943 99.32888168 20.25415894 100.03496063 20.25994873 100.76243591 C20.23638827 104.40856491 20.08318842 105.87521737 18 109 C18.01633987 108.11146835 18.03267975 107.22293671 18.04951477 106.30747986 C18.19358034 97.82310338 18.27228636 89.34095538 18.28240681 80.85532284 C18.28978327 76.49513548 18.32009192 72.13793152 18.40795898 67.77856445 C18.8414201 45.29013168 17.82805027 29.65274331 4 11 C2.98657237 9.54292831 1.99068987 8.07341934 1.0168457 6.58959961 C0.39444756 5.65753944 0.39444756 5.65753944 -0.24052429 4.70664978 C-1 3 -1 3 0 0 Z " fill="#A88BD9" transform="translate(305,216)"/>
<path d="M0 0 C3.99996286 1.33332095 4.83782337 3.4957827 7 7 C6.67 7.66 6.34 8.32 6 9 C4.35 8.67 2.7 8.34 1 8 C0.67 8.99 0.34 9.98 0 11 C-0.66 11 -1.32 11 -2 11 C-1.83628906 11.55171875 -1.67257813 12.1034375 -1.50390625 12.671875 C-0.94239586 15.26614007 -0.90260992 17.59835411 -0.9375 20.25 C-0.94652344 21.14203125 -0.95554687 22.0340625 -0.96484375 22.953125 C-0.97644531 23.62859375 -0.98804687 24.3040625 -1 25 C-1.66 25 -2.32 25 -3 25 C-2.41864315 53.05421549 -2.41864315 53.05421549 0 81 C0.66 81 1.32 81 2 81 C2.1958009 82.91583647 2.38132214 84.83272539 2.5625 86.75 C2.66691406 87.81734375 2.77132812 88.8846875 2.87890625 89.984375 C2.98730119 92.68375875 2.71552316 94.44628099 2 97 C-6.2603431 65.49269131 -9.74606442 32.88565201 -1 1 C-0.67 0.67 -0.34 0.34 0 0 Z " fill="#9E7CD3" transform="translate(80,207)"/>
<path d="M0 0 C0 0.99 0 1.98 0 3 C-7.07638293 5.41632588 -13.94082639 7.28441216 -21.33984375 8.2890625 C-22.49027916 8.45128799 -22.49027916 8.45128799 -23.66395569 8.61679077 C-26.0878467 8.95751157 -28.5126245 9.29136567 -30.9375 9.625 C-32.59186058 9.85631567 -34.2461582 10.08808214 -35.90039062 10.3203125 C-39.93288472 10.88542137 -43.96618819 11.44437854 -48 12 C-47.67 12.99 -47.34 13.98 -47 15 C-45.68 14.67 -44.36 14.34 -43 14 C-43.33 15.32 -43.66 16.64 -44 18 C-41.69 18.33 -39.38 18.66 -37 19 C-37 19.66 -37 20.32 -37 21 C-36.34 21.33 -35.68 21.66 -35 22 C-34.375 24.5625 -34.375 24.5625 -34 27 C-38.39405212 25.02571391 -41.80980645 22.05887875 -45.515625 19.02734375 C-46.9852939 17.82803847 -48.46971578 16.64586389 -49.984375 15.50390625 C-51.625 14.25 -51.625 14.25 -54 12 C-54 10.68 -54 9.36 -54 8 C-53.36835938 7.97083496 -52.73671875 7.94166992 -52.0859375 7.91162109 C-36.5935858 7.1219353 -22.27323398 4.85415708 -7.37402344 0.51904297 C-4.84899981 -0.03301382 -2.57666352 -0.09108259 0 0 Z " fill="#7544CB" transform="translate(183,366)"/>
<path d="M0 0 C0.68707555 2.49064888 1 4.37886292 1 7 C0.34 7 -0.32 7 -1 7 C-1 7.66 -1 8.32 -1 9 C-3.99039637 10.85642343 -7.07870444 12.48431657 -10.1796875 14.1484375 C-13.09477967 16.06222378 -13.6458952 16.94858411 -15 20 C-19.55952991 23.30172855 -24.47585139 24.53965428 -30 25 C-30 26.32 -30 27.64 -30 29 C-32.31 29.66 -34.62 30.32 -37 31 C-37 31.66 -37 32.32 -37 33 C-37.84304687 33.27714844 -38.68609375 33.55429687 -39.5546875 33.83984375 C-41.19824219 34.38318359 -41.19824219 34.38318359 -42.875 34.9375 C-44.51082031 35.47697266 -44.51082031 35.47697266 -46.1796875 36.02734375 C-48.90758682 36.89914074 -48.90758682 36.89914074 -51 38 C-51.495 36.515 -51.495 36.515 -52 35 C-51.09628662 34.49569458 -51.09628662 34.49569458 -50.17431641 33.98120117 C-39.72602644 28.14035128 -29.2912736 22.28216567 -19.0625 16.0625 C-18.36141113 15.63928467 -17.66032227 15.21606934 -16.93798828 14.7800293 C-6.9176338 8.93279558 -6.9176338 8.93279558 0 0 Z " fill="#865DCE" transform="translate(290,306)"/>
<path d="M0 0 C5.07838103 2.73600198 9.43656706 5.75211811 13.8125 9.5 C14.38419922 9.97308594 14.95589844 10.44617188 15.54492188 10.93359375 C18.41405095 13.36780196 20.67642821 15.42551312 22 19 C19.48322887 20.25838557 17.58706712 20.20818973 14.7734375 20.31640625 C13.7421875 20.35830078 12.7109375 20.40019531 11.6484375 20.44335938 C10.02808594 20.50233398 10.02808594 20.50233398 8.375 20.5625 C7.28703125 20.60568359 6.1990625 20.64886719 5.078125 20.69335938 C2.3855483 20.7996453 -0.30712253 20.90168057 -3 21 C-3.33 20.34 -3.66 19.68 -4 19 C-0.7 18.01 2.6 17.02 6 16 C4.68 15.34 3.36 14.68 2 14 C2 13.34 2 12.68 2 12 C2.99 11.34 3.98 10.68 5 10 C5.33 9.01 5.66 8.02 6 7 C5.01 6.67 4.02 6.34 3 6 C2.67 5.34 2.34 4.68 2 4 C-0.02463255 3.34786708 -0.02463255 3.34786708 -2 3 C-1 1 -1 1 0 0 Z " fill="#793EDE" transform="translate(350,106)"/>
<path d="M0 0 C0.66 0.33 1.32 0.66 2 1 C2 1.66 2 2.32 2 3 C1.01 3.33 0.02 3.66 -1 4 C-2.66710346 5.49985609 -2.66710346 5.49985609 -4 7 C-4.99 6.67 -5.98 6.34 -7 6 C-7.66 6.66 -8.32 7.32 -9 8 C-9.99 8.33 -10.98 8.66 -12 9 C-12 9.66 -12 10.32 -12 11 C-14.66672614 14.16056431 -17.0519468 15.7852144 -21 17 C-21.99 17 -22.98 17 -24 17 C-24 17.99 -24 18.98 -24 20 C-6.18 20.33 11.64 20.66 30 21 C30.495 21.99 30.495 21.99 31 23 C24.29631378 23.02564096 17.59264049 23.04298715 10.88891602 23.05493164 C8.61482267 23.05991833 6.34073245 23.06671009 4.06665039 23.07543945 C-8.33019401 23.12178789 -20.645425 23.12084566 -33 22 C-33 21.01 -33 20.02 -33 19 C-30.85685145 17.46654026 -28.78492291 16.16599978 -26.5 14.875 C-25.50286987 14.29492188 -25.50286987 14.29492188 -24.4855957 13.703125 C-22.33107197 12.45543817 -20.16687288 11.22610041 -18 10 C-17.2579834 9.57750977 -16.5159668 9.15501953 -15.75146484 8.71972656 C-3.51954976 1.75977488 -3.51954976 1.75977488 0 0 Z " fill="#B699E3" transform="translate(258,165)"/>
<path d="M0 0 C1.76462683 3.08809695 2 4.23312136 2 8 C1.34 8 0.68 8 0 8 C-0.1546875 9.7634375 -0.1546875 9.7634375 -0.3125 11.5625 C-0.82344801 15.76115975 -2.28124378 19.13279851 -4 23 C-4.39764263 24.98821313 -4.75455166 26.98732362 -5 29 C-4.34 29 -3.68 29 -3 29 C-3 29.66 -3 30.32 -3 31 C-3.66 31 -4.32 31 -5 31 C-5.33 31.66 -5.66 32.32 -6 33 C-7.32 32.67 -8.64 32.34 -10 32 C-10 34.31 -10 36.62 -10 39 C-9.01 39 -8.02 39 -7 39 C-7 38.34 -7 37.68 -7 37 C-6.31292969 36.79503906 -5.62585938 36.59007812 -4.91796875 36.37890625 C-4.01691406 36.10949219 -3.11585938 35.84007812 -2.1875 35.5625 C-1.29417969 35.29566406 -0.40085937 35.02882813 0.51953125 34.75390625 C2.35473055 34.19612127 4.18033726 33.60655425 6 33 C6.66 33.66 7.32 34.32 8 35 C5.12882484 36.15558273 2.25246071 37.29766867 -0.625 38.4375 C-1.43324219 38.76298828 -2.24148438 39.08847656 -3.07421875 39.42382812 C-7.38149214 41.12222454 -11.36321551 42.46729499 -16 43 C-15.06527385 38.81008572 -13.20448613 35.20128783 -11.3125 31.375 C-6.45527082 21.33453101 -2.63679721 10.84849425 0 0 Z " fill="#9A7ACD" transform="translate(313,376)"/>
<path d="M0 0 C4.34239575 0.4070996 7.17424349 2.19795177 10.73046875 4.5234375 C13.28392868 6.18472468 15.88430366 7.75122156 18.5 9.3125 C19.3559375 9.82425781 20.211875 10.33601562 21.09375 10.86328125 C21.7228125 11.23839844 22.351875 11.61351562 23 12 C19.25 13.125 19.25 13.125 17 12 C16.01 13.98 15.02 15.96 14 18 C13.01 18 12.02 18 11 18 C11.33 19.32 11.66 20.64 12 22 C8.56403276 18.7893927 6.58471374 15.07331459 4.3125 11 C3.68891602 9.91332031 3.68891602 9.91332031 3.05273438 8.8046875 C2.66021484 8.10601562 2.26769531 7.40734375 1.86328125 6.6875 C1.50532471 6.05199219 1.14736816 5.41648438 0.77856445 4.76171875 C0 3 0 3 0 0 Z " fill="#844EDE" transform="translate(292,195)"/>
<path d="M0 0 C21.12 0 42.24 0 64 0 C64 0.99 64 1.98 64 3 C61.98828125 4.67578125 61.98828125 4.67578125 59.3125 6.3125 C58.00732422 7.14201172 58.00732422 7.14201172 56.67578125 7.98828125 C54 9 54 9 51.16796875 8.16796875 C50.45253906 7.78253906 49.73710937 7.39710938 49 7 C49 6.67 49 6.34 49 6 C51.64 5.67 54.28 5.34 57 5 C57 4.01 57 3.02 57 2 C38.19 2 19.38 2 0 2 C0 1.34 0 0.68 0 0 Z " fill="#7149BF" transform="translate(211,313)"/>
<path d="M0 0 C0 0.33 0 0.66 0 1 C-3.08404808 0.88979143 -6.16691192 0.75924186 -9.25 0.625 C-10.55904297 0.57859375 -10.55904297 0.57859375 -11.89453125 0.53125 C-12.73886719 0.49257812 -13.58320313 0.45390625 -14.453125 0.4140625 C-15.22817383 0.3826416 -16.00322266 0.3512207 -16.80175781 0.31884766 C-19 0 -19 0 -20.78417969 -0.96337891 C-27.08774521 -3.91235854 -35.03428688 -3.13408018 -41.84375 -3.09765625 C-43.35829773 -3.09553383 -43.35829773 -3.09553383 -44.90344238 -3.09336853 C-48.10232611 -3.08780781 -51.30113772 -3.0752627 -54.5 -3.0625 C-56.67968648 -3.05747992 -58.85937407 -3.0529179 -61.0390625 -3.04882812 C-66.35939926 -3.03785128 -71.67969448 -3.02115268 -77 -3 C-56.06830955 -13.46584522 -21.5792096 -5.69329365 0 0 Z " fill="#916FCB" transform="translate(300,81)"/>
<path d="M0 0 C6.71087711 0.45846586 11.81704898 1.82311763 17.875 4.6875 C18.6580249 5.04763184 19.4410498 5.40776367 20.24780273 5.77880859 C29.64936758 10.151133 38.48689205 15.07235446 47 21 C45 22 45 22 42.125 21.1875 C39.63310543 20.24058006 37.37488595 19.18744298 35 18 C34.030625 17.731875 33.06125 17.46375 32.0625 17.1875 C28.41230113 15.77211676 26.74958596 13.74958596 24 11 C19.31320504 8.56981002 15.18455505 7.72583771 10 7 C9.67 6.34 9.34 5.68 9 5 C6.47266765 4.34444881 6.47266765 4.34444881 4 4 C4 3.34 4 2.68 4 2 C2.68 1.67 1.36 1.34 0 1 C0 0.67 0 0.34 0 0 Z " fill="#7744CD" transform="translate(303,84)"/>
<path d="M0 0 C1.65 0 3.3 0 5 0 C5.33 0.66 5.66 1.32 6 2 C6.99 2.33 7.98 2.66 9 3 C9 3.66 9 4.32 9 5 C10.03253906 4.95359375 11.06507813 4.9071875 12.12890625 4.859375 C16.06415197 5.00233044 18.35253912 5.71820204 21.9375 7.25 C32.23380798 11.17400011 43.14303225 12.42243468 54 14 C54 14.33 54 14.66 54 15 C56.64 15.33 59.28 15.66 62 16 C62 16.33 62 16.66 62 17 C41.11963185 18.02690335 18.85262154 11.61834127 0 3 C0 2.01 0 1.02 0 0 Z " fill="#A381D6" transform="translate(178,408)"/>
<path d="M0 0 C1.85625 0.0309375 1.85625 0.0309375 3.75 0.0625 C1.15313697 1.79374202 -0.30521773 2.49922496 -3.20703125 3.28125 C-3.98232178 3.49048096 -4.7576123 3.69971191 -5.55639648 3.9152832 C-21.33186841 7.9893968 -35.99044462 9.35693863 -52.25 9.0625 C-52.25 8.4025 -52.25 7.7425 -52.25 7.0625 C-51.05503906 7.02511719 -49.86007813 6.98773438 -48.62890625 6.94921875 C-45.34690321 6.82249649 -42.06762124 6.67391139 -38.7890625 6.4765625 C-37.65138428 6.41009521 -37.65138428 6.41009521 -36.49072266 6.34228516 C-33.38392326 5.95435836 -30.62140389 5.0079006 -27.734375 3.82421875 C-22.66910144 2.27118676 -17.29665905 2.0239569 -12.04296875 1.4921875 C-7.91439397 1.02448078 -4.16381325 -0.06939689 0 0 Z " fill="#8156CE" transform="translate(177.25,360.9375)"/>
<path d="M0 0 C0 0.66 0 1.32 0 2 C-0.99 2 -1.98 2 -3 2 C-3.33 3.65 -3.66 5.3 -4 7 C-7.3 7 -10.6 7 -14 7 C-14.66 8.65 -15.32 10.3 -16 12 C-17.051875 12.0825 -18.10375 12.165 -19.1875 12.25 C-22.99943626 12.68924147 -22.99943626 12.68924147 -25.375 14.9375 C-28.90505297 17.71111305 -32.55964288 18.55509192 -37 19 C-37.66 18.67 -38.32 18.34 -39 18 C-40.32860925 17.64830932 -41.66158328 17.31229724 -43 17 C-42.29093506 16.73372803 -41.58187012 16.46745605 -40.85131836 16.19311523 C-22.45531589 9.27755728 -22.45531589 9.27755728 -4.5625 1.1796875 C-2 0 -2 0 0 0 Z " fill="#9470D8" transform="translate(227,347)"/>
<path d="M0 0 C1.31712811 3.62210231 0.68301982 5.67244777 -0.75 9.1875 C-1.09546875 10.06792969 -1.4409375 10.94835937 -1.796875 11.85546875 C-3 14 -3 14 -6 15 C-5.979375 15.94875 -5.95875 16.8975 -5.9375 17.875 C-6 21 -6 21 -7 23 C-7.66 23 -8.32 23 -9 23 C-9.226875 23.86625 -9.45375 24.7325 -9.6875 25.625 C-11.26975906 29.69366616 -12.95766942 31.88346624 -16 35 C-16.99 35 -17.98 35 -19 35 C-17.51164834 29.75376599 -15.11516947 25.49580075 -12.3125 20.875 C-11.4151576 19.37382162 -10.51802361 17.87251865 -9.62109375 16.37109375 C-9.17878418 15.63487793 -8.73647461 14.89866211 -8.28076172 14.14013672 C-6.45361791 11.08700241 -4.66350223 8.01343123 -2.875 4.9375 C-2.31554687 3.97714844 -1.75609375 3.01679688 -1.1796875 2.02734375 C-0.79039062 1.35832031 -0.40109375 0.68929688 0 0 Z " fill="#7343C9" transform="translate(314,264)"/>
<path d="M0 0 C0.33 0 0.66 0 1 0 C0.53196793 6.69808662 0.05815839 13.39468151 -0.5 20.0859375 C-2.16748043 40.70503735 -2.61526828 61.32457982 -3 82 C-3.33 82 -3.66 82 -4 82 C-4.05157491 74.44591256 -4.08609141 66.89187199 -4.10986328 59.33764648 C-4.11979468 56.77870996 -4.13334429 54.21978439 -4.15087891 51.66088867 C-4.23741323 38.6883757 -4.19929642 25.78299099 -3.1171875 12.84765625 C-3.03920929 11.8893541 -2.96123108 10.93105194 -2.88088989 9.94371033 C-2.25712816 3.38569224 -2.25712816 3.38569224 0 0 Z " fill="#7F56C4" transform="translate(179,150)"/>
<path d="M0 0 C-0.71971619 3.75345656 -2.33112202 6.86091969 -4.0625 10.25 C-4.61035156 11.32765625 -5.15820312 12.4053125 -5.72265625 13.515625 C-6.14417969 14.33546875 -6.56570312 15.1553125 -7 16 C-7.33 16 -7.66 16 -8 16 C-8 13.69 -8 11.38 -8 9 C-7.34 9 -6.68 9 -6 9 C-6 7.68 -6 6.36 -6 5 C-6.54938232 5.176521 -7.09876465 5.35304199 -7.66479492 5.53491211 C-10.1714732 6.33858197 -12.67946482 7.13807522 -15.1875 7.9375 C-16.05181641 8.21529297 -16.91613281 8.49308594 -17.80664062 8.77929688 C-19.06831055 9.18051758 -19.06831055 9.18051758 -20.35546875 9.58984375 C-21.12528076 9.83597412 -21.89509277 10.08210449 -22.68823242 10.33569336 C-25 11 -25 11 -27.7277832 11.46313477 C-28.47761475 11.64030029 -29.22744629 11.81746582 -30 12 C-30.33 12.66 -30.66 13.32 -31 14 C-31.66 13.34 -32.32 12.68 -33 12 C-25.91638505 8.5794873 -18.78770075 5.42193412 -11.4375 2.625 C-10.75945312 2.36251465 -10.08140625 2.1000293 -9.3828125 1.82958984 C-6.00109455 0.56652836 -3.66513008 0 0 0 Z " fill="#AF90DC" transform="translate(203,81)"/>
<path d="M0 0 C0.33 0 0.66 0 1 0 C0.42934122 6.41991126 -1.67344909 12.01589463 -4 18 C-5.65 17.67 -7.3 17.34 -9 17 C-9.1546875 18.2065625 -9.1546875 18.2065625 -9.3125 19.4375 C-9.86847463 22.31845946 -10.5208318 25.01297489 -11.375 27.8125 C-11.60960938 28.58207031 -11.84421875 29.35164063 -12.0859375 30.14453125 C-12.38757813 30.75683594 -12.68921875 31.36914062 -13 32 C-14.485 32.495 -14.485 32.495 -16 33 C-16.66 33.66 -17.32 34.32 -18 35 C-17.36920189 30.43547478 -15.56268215 26.62784827 -13.5 22.5625 C-13.15122803 21.86962891 -12.80245605 21.17675781 -12.44311523 20.46289062 C-8.78652691 13.34876702 -4.64922847 6.51095453 0 0 Z " fill="#8961CD" transform="translate(105,150)"/>
<path d="M0 0 C4.18114746 0.57140145 6.90343002 1.96402161 10.4140625 4.2734375 C11.42210937 4.9334375 12.43015625 5.5934375 13.46875 6.2734375 C14.5103125 6.96695313 15.551875 7.66046875 16.625 8.375 C17.67429687 9.06078125 18.72359375 9.7465625 19.8046875 10.453125 C28.2573626 16.02322116 28.2573626 16.02322116 31 19 C28.75 19.25 28.75 19.25 26 19 C24.66666667 17.66666667 23.33333333 16.33333333 22 15 C19.67793475 14.29508733 17.34406932 13.62787571 15 13 C13.64377755 12.03126968 12.30582947 11.03565785 11 10 C8.85266073 9.29485154 8.85266073 9.29485154 7 9 C7 8.34 7 7.68 7 7 C6.236875 6.71125 5.47375 6.4225 4.6875 6.125 C2 5 2 5 -1 3 C-0.67 2.01 -0.34 1.02 0 0 Z " fill="#8961CE" transform="translate(319,211)"/>
<path d="M0 0 C0.33 0 0.66 0 1 0 C3.32955765 21.59000752 2.39604597 43.91944708 -3 65 C-3.33 65 -3.66 65 -4 65 C-3.85919445 62.22882696 -3.71256882 59.45817359 -3.5625 56.6875 C-3.52318359 55.90181641 -3.48386719 55.11613281 -3.44335938 54.30664062 C-3.40146484 53.54931641 -3.35957031 52.79199219 -3.31640625 52.01171875 C-3.27974854 51.31522217 -3.24309082 50.61872559 -3.20532227 49.90112305 C-3 48 -3 48 -2 45 C-1.97005886 41.99733154 -2.06613487 39.00897497 -2.16015625 36.0078125 C-2 33 -2 33 -1.00219727 30.7253418 C0.2002508 27.45544465 0.22708914 24.86626035 0.1953125 21.38671875 C0.18886719 20.13955078 0.18242187 18.89238281 0.17578125 17.60742188 C0.15902344 16.31384766 0.14226562 15.02027344 0.125 13.6875 C0.11597656 12.37458984 0.10695313 11.06167969 0.09765625 9.70898438 C0.07411797 6.47247087 0.0412352 3.23632851 0 0 Z " fill="#B89BDF" transform="translate(424,228)"/>
<path d="M0 0 C0.70116943 -0.00902344 1.40233887 -0.01804688 2.12475586 -0.02734375 C7.25038993 0.00216692 11.73462071 0.50038806 15.8359375 3.7578125 C17.203125 5.25520833 18.5703125 6.75260417 19.9375 8.25 C19.6075 9.24 19.2775 10.23 18.9375 11.25 C15.57733107 10.12994369 14.24685087 8.87788203 11.9375 6.25 C11.9375 5.59 11.9375 4.93 11.9375 4.25 C8.05443387 2.98574591 4.16096846 3.10264006 0.125 3.125 C-0.56142578 3.12113281 -1.24785156 3.11726562 -1.95507812 3.11328125 C-9.73938899 3.03994983 -9.73938899 3.03994983 -17.0625 5.25 C-19.4119053 4.64239518 -21.74779088 3.97870472 -24.0625 3.25 C-24.0625 2.92 -24.0625 2.59 -24.0625 2.25 C-16.02672351 0.93994619 -8.14560559 0.04298945 0 0 Z " fill="#9D7FD2" transform="translate(366.0625,129.75)"/>
<path d="M0 0 C3.53586014 3.17320782 5.58578031 5.16743695 6 10 C6.78375 10.061875 7.5675 10.12375 8.375 10.1875 C9.24125 10.455625 10.1075 10.72375 11 11 C12.3125 13.5625 12.3125 13.5625 13 16 C12.34 16 11.68 16 11 16 C11 16.66 11 17.32 11 18 C11.66 18 12.32 18 13 18 C13.28875 18.9075 13.5775 19.815 13.875 20.75 C14.76531776 23.32202908 15.71494413 25.61346766 17 28 C16.34 28.66 15.68 29.32 15 30 C14.62190186 29.35973877 14.24380371 28.71947754 13.85424805 28.05981445 C12.13217768 25.14393722 10.40984139 22.22821715 8.6875 19.3125 C8.09259766 18.30509766 7.49769531 17.29769531 6.88476562 16.25976562 C6.30791016 15.28330078 5.73105469 14.30683594 5.13671875 13.30078125 C4.60780029 12.40528564 4.07888184 11.50979004 3.53393555 10.5871582 C2.48318427 8.81494568 1.3825092 7.07166349 0.24145508 5.35620117 C-0.1682251 4.57865479 -0.57790527 3.8011084 -1 3 C-0.67 2.01 -0.34 1.02 0 0 Z " fill="#8E67D5" transform="translate(305,216)"/>
<path d="M0 0 C4.29 0 8.58 0 13 0 C13 0.66 13 1.32 13 2 C10.69 2.33 8.38 2.66 6 3 C6.33 3.99 6.66 4.98 7 6 C8.32 5.67 9.64 5.34 11 5 C10.67 6.32 10.34 7.64 10 9 C12.31 9.33 14.62 9.66 17 10 C17 10.66 17 11.32 17 12 C17.66 12.33 18.32 12.66 19 13 C19.625 15.5625 19.625 15.5625 20 18 C14.67850885 15.60900743 10.48202749 11.66455078 6 8 C5.34515625 7.4946875 4.6903125 6.989375 4.015625 6.46875 C2.62157638 5.38006441 1.3010227 4.19831039 0 3 C0 2.01 0 1.02 0 0 Z " fill="#8D62D4" transform="translate(129,375)"/>
<path d="M0 0 C1.66666667 0.66666667 3.33333333 1.33333333 5 2 C6.2684375 2.495 6.2684375 2.495 7.5625 3 C8.7690625 3.495 8.7690625 3.495 10 4 C10.7425 4.28875 11.485 4.5775 12.25 4.875 C14 6 14 6 14.4375 8 C14.623125 8.66 14.80875 9.32 15 10 C16.6635479 10.67441131 18.33066942 11.3400321 20 12 C24 16.32432432 24 16.32432432 24 19 C24.99 19 25.98 19 27 19 C27.33 20.65 27.66 22.3 28 24 C22.18439293 19.90074688 16.98618694 15.3033949 11.765625 10.4765625 C8.50160561 7.55369768 5.09497615 4.89205755 1.58203125 2.27734375 C1.05996094 1.85582031 0.53789062 1.43429688 0 1 C0 0.67 0 0.34 0 0 Z " fill="#A689D9" transform="translate(362,233)"/>
<path d="M0 0 C8.6309795 5.96583144 8.6309795 5.96583144 11 11 C8.48322887 12.25838557 6.58706712 12.20818973 3.7734375 12.31640625 C2.7421875 12.35830078 1.7109375 12.40019531 0.6484375 12.44335938 C-0.43179687 12.48267578 -1.51203125 12.52199219 -2.625 12.5625 C-3.71296875 12.60568359 -4.8009375 12.64886719 -5.921875 12.69335938 C-8.6144517 12.7996453 -11.30712253 12.90168057 -14 13 C-14.33 12.34 -14.66 11.68 -15 11 C-8.53991163 9.04978464 -2.7281627 8.77737697 4 9 C3.34 7.88625 2.68 6.7725 2 5.625 C0 2.25 0 2.25 0 0 Z " fill="#9269D5" transform="translate(361,114)"/>
<path d="M0 0 C1.85772162 0.08984301 3.71247985 0.24611861 5.5625 0.4375 C7.08037109 0.59025391 7.08037109 0.59025391 8.62890625 0.74609375 C9.41136719 0.82988281 10.19382813 0.91367187 11 1 C6.57314379 3.95123747 1.74015753 5.87149358 -3.125 8 C-4.13304687 8.45117188 -5.14109375 8.90234375 -6.1796875 9.3671875 C-12.09292692 11.95614466 -17.64721682 13.83774445 -24 15 C-23.67 14.01 -23.34 13.02 -23 12 C-19.52674819 10.8422494 -16.63932552 10.93133348 -13 11 C-13 10.34 -13 9.68 -13 9 C-11.68 9 -10.36 9 -9 9 C-9 8.34 -9 7.68 -9 7 C-8.01 7 -7.02 7 -6 7 C-6 6.34 -6 5.68 -6 5 C-4.68 5 -3.36 5 -2 5 C-1.855625 4.360625 -1.71125 3.72125 -1.5625 3.0625 C-1 1 -1 1 0 0 Z " fill="#8B5BD3" transform="translate(205,346)"/>
<path d="M0 0 C2.19181171 3.28771757 3.28480171 6.51734771 4.4375 10.25 C4.65559326 10.95294189 4.87368652 11.65588379 5.09838867 12.38012695 C7.66977144 20.90538896 10.32042048 30.04509076 10 39 C5.75055886 32.62583829 4.53248173 26.11303075 3.52734375 18.63671875 C3.1307411 15.78363269 3.1307411 15.78363269 1 13 C0.95598268 10.66708189 0.96045766 8.33299825 1 6 C0.70814937 3.9935269 0.38830401 1.99005807 0 0 Z " fill="#B290DD" transform="translate(414,188)"/>
<path d="M0 0 C2.91932436 2.58799 4.67433855 5.57987209 6.625 8.9375 C7.23601562 9.97777344 7.84703125 11.01804687 8.4765625 12.08984375 C9.72907978 14.48247291 10.53074186 16.3683496 11 19 C10.34 19.33 9.68 19.66 9 20 C6.54961707 18.75717988 4.226675 17.47117661 1.875 16.0625 C1.21628906 15.67642578 0.55757812 15.29035156 -0.12109375 14.89257812 C-1.751613 13.93553422 -3.37636184 12.96867185 -5 12 C-1.79937313 10.39968656 0.72271806 11.96826309 4 13 C3.67 11.02 3.34 9.04 3 7 C2.34 7 1.68 7 1 7 C0.67 4.69 0.34 2.38 0 0 Z " fill="#906CD1" transform="translate(197,285)"/>
<path d="M0 0 C0.99 0 1.98 0 3 0 C4.125 6.625 4.125 6.625 3 10 C2.360625 10.12375 1.72125 10.2475 1.0625 10.375 C0.381875 10.58125 -0.29875 10.7875 -1 11 C-2.15521502 13.47130918 -2.15521502 13.47130918 -3 16 C-3.66 16.33 -4.32 16.66 -5 17 C-5.65555119 19.52733235 -5.65555119 19.52733235 -6 22 C-6.66 22 -7.32 22 -8 22 C-8.33 22.66 -8.66 23.32 -9 24 C-8.32438689 19.96884179 -7.10447375 16.36878245 -5.625 12.5625 C-5.20476562 11.47066406 -4.78453125 10.37882812 -4.3515625 9.25390625 C-3.03596742 6.08659209 -1.57180641 3.04709839 0 0 Z " fill="#946BD6" transform="translate(202,92)"/>
<path d="M0 0 C-0.639375 0.103125 -1.27875 0.20625 -1.9375 0.3125 C-2.618125 0.539375 -3.29875 0.76625 -4 1 C-4.33 1.99 -4.66 2.98 -5 4 C-9.43424223 6.85058429 -12.7837917 7.3129725 -18 7 C-18 7.66 -18 8.32 -18 9 C-19.32 9 -20.64 9 -22 9 C-22 9.66 -22 10.32 -22 11 C-22.66 11 -23.32 11 -24 11 C-24.33 11.99 -24.66 12.98 -25 14 C-27.875 14.625 -27.875 14.625 -31 15 C-31.66 14.34 -32.32 13.68 -33 13 C-29.33606362 11.2234777 -25.66837841 9.45482933 -22 7.6875 C-20.97003906 7.18798828 -19.94007813 6.68847656 -18.87890625 6.17382812 C-2.96147017 -1.48073509 -2.96147017 -1.48073509 0 0 Z " fill="#AA8BDD" transform="translate(305,145)"/>
<path d="M0 0 C0.33 2.97 0.66 5.94 1 9 C0.67 9 0.34 9 0 9 C-0.66 14.28 -1.32 19.56 -2 25 C-5 22 -5 22 -6 19 C-5.01 19 -4.02 19 -3 19 C-3.33 16.69 -3.66 14.38 -4 12 C-4.99 12.33 -5.98 12.66 -7 13 C-4.88888889 0 -4.88888889 0 0 0 Z " fill="#763ED7" transform="translate(422,268)"/>
<path d="M0 0 C1.76462683 3.08809695 2 4.23312136 2 8 C1.34 8 0.68 8 0 8 C-0.1546875 9.7634375 -0.1546875 9.7634375 -0.3125 11.5625 C-0.82344801 15.76115975 -2.28124378 19.13279851 -4 23 C-4.39764263 24.98821313 -4.75455166 26.98732362 -5 29 C-4.34 29 -3.68 29 -3 29 C-3 29.66 -3 30.32 -3 31 C-3.66 31 -4.32 31 -5 31 C-5.33 31.66 -5.66 32.32 -6 33 C-6.66 32.67 -7.32 32.34 -8 32 C-8.042721 30.33388095 -8.04063832 28.66617115 -8 27 C-7.67 26.67 -7.34 26.34 -7 26 C-6.57850583 24.0330272 -6.15821625 22.06579228 -5.7421875 20.09765625 C-4.11895498 13.32279633 -2.00621909 6.66952988 0 0 Z " fill="#956FD2" transform="translate(313,376)"/>
<path d="M0 0 C1 2 1 2 1 4 C1.66 4.66 2.32 5.32 3 6 C3.125 9.625 3.125 9.625 3 13 C2.01 13.495 2.01 13.495 1 14 C1.99 15.98 2.98 17.96 4 20 C0.08955976 18.69651992 -0.20030052 17.28330719 -2.0625 13.6875 C-2.56910156 12.72199219 -3.07570313 11.75648438 -3.59765625 10.76171875 C-4.74010912 8.51181853 -5.87797806 6.26014945 -7 4 C-5.824375 3.8453125 -5.824375 3.8453125 -4.625 3.6875 C-1.66954819 3.22404978 -1.66954819 3.22404978 0 0 Z " fill="#996CDF" transform="translate(416,274)"/>
<path d="M0 0 C0 3.29223784 -0.50518132 5.08510357 -2 8 C-2.639375 8.28875 -3.27875 8.5775 -3.9375 8.875 C-6.3941012 9.9361177 -6.3941012 9.9361177 -7.4375 13.4375 C-9.16627601 17.37910931 -10.26743536 18.13371768 -14 20 C-14.33 20.66 -14.66 21.32 -15 22 C-17.0625 22.625 -17.0625 22.625 -19 23 C-17.72020546 20.24763696 -16.33631792 18.01891622 -14.35546875 15.72265625 C-13.84306641 15.12646484 -13.33066406 14.53027344 -12.80273438 13.91601562 C-12.26970703 13.30435547 -11.73667969 12.69269531 -11.1875 12.0625 C-10.66607422 11.45470703 -10.14464844 10.84691406 -9.60742188 10.22070312 C-6.53485558 6.66481179 -3.36624891 3.27913711 0 0 Z " fill="#946DD5" transform="translate(128,123)"/>
<path d="M0 0 C3.97262248 1.39578628 6.96198392 3.27658117 10.3125 5.8125 C14.75881287 9.12012299 19.25751843 12.1366149 24 15 C20.86650268 16.04449911 20.01031744 15.93423645 17 15 C17 14.34 17 13.68 17 13 C14.525 12.505 14.525 12.505 12 12 C12 11.34 12 10.68 12 10 C11.39671875 9.84144531 10.7934375 9.68289063 10.171875 9.51953125 C4.97557215 8.00254606 1.9822563 6.79754274 -1 2 C-0.67 1.34 -0.34 0.68 0 0 Z " fill="#9C78D6" transform="translate(145,272)"/>
<path d="M0 0 C0.33 0 0.66 0 1 0 C1.4375284 6.77682877 -0.18597131 12.8890878 -1.8125 19.4375 C-2.07353516 20.53126953 -2.33457031 21.62503906 -2.60351562 22.75195312 C-4.04991347 28.68396996 -5.70953707 34.33918621 -8 40 C-8.33 40 -8.66 40 -9 40 C-9.24511382 35.08240396 -8.34512067 30.81474505 -7 26.125 C-6.80921875 25.43664062 -6.6184375 24.74828125 -6.421875 24.0390625 C-5.95476272 22.35745829 -5.4783358 20.67844615 -5 19 C-4.34 19 -3.68 19 -3 19 C-3.02320313 18.39671875 -3.04640625 17.7934375 -3.0703125 17.171875 C-3.08835937 16.37265625 -3.10640625 15.5734375 -3.125 14.75 C-3.14820313 13.96109375 -3.17140625 13.1721875 -3.1953125 12.359375 C-2.98047262 9.76410928 -2.2276423 8.2692782 -1 6 C-0.61709538 4.00889599 -0.27395385 2.00899487 0 0 Z " fill="#B99EE2" transform="translate(313,352)"/>
<path d="M0 0 C0.68707555 2.49064888 1 4.37886292 1 7 C0.34 7 -0.32 7 -1 7 C-1 7.66 -1 8.32 -1 9 C-3.05821048 10.45442908 -5.09283656 11.77143537 -7.25 13.0625 C-8.12978516 13.60874023 -8.12978516 13.60874023 -9.02734375 14.16601562 C-14.73007724 17.63250868 -14.73007724 17.63250868 -18 18 C-18.66 17.67 -19.32 17.34 -20 17 C-18.97519531 16.35933594 -17.95039063 15.71867187 -16.89453125 15.05859375 C-15.5334051 14.1855956 -14.17275302 13.31185799 -12.8125 12.4375 C-12.13896484 12.01919922 -11.46542969 11.60089844 -10.77148438 11.16992188 C-5.94177202 8.03649874 -3.09353578 4.85955426 0 0 Z " fill="#9576CC" transform="translate(290,306)"/>
<path d="M0 0 C3 1 3 1 4.75390625 3.984375 C5.36704656 5.23459603 5.96952578 6.49008919 6.5625 7.75 C6.86607422 8.37132812 7.16964844 8.99265625 7.48242188 9.6328125 C8.34357712 11.41140764 9.17252951 13.20548569 10 15 C10.63228516 16.36898437 10.63228516 16.36898437 11.27734375 17.765625 C12 20 12 20 11 23 C10.34 22.67 9.68 22.34 9 22 C9 21.01 9 20.02 9 19 C8.01 18.67 7.02 18.34 6 18 C5.50028538 16.3342846 5.01171179 14.66359951 4.60546875 12.97265625 C3.95239553 10.84490157 3.03946798 9.20424973 1.875 7.3125 C0 4 0 4 0 0 Z " fill="#B59AE1" transform="translate(402,165)"/>
<path d="M0 0 C2.8992226 0.46761655 3.86675182 0.86675182 6 3 C-5.40161688 5.1142071 -16.44536021 5.20923895 -28 5 C-28 4.34 -28 3.68 -28 3 C-27.18732666 2.94465088 -26.37465332 2.88930176 -25.53735352 2.83227539 C-21.87872368 2.58043503 -18.22062515 2.32156361 -14.5625 2.0625 C-13.28310547 1.97548828 -12.00371094 1.88847656 -10.68554688 1.79882812 C-8.86313477 1.66831055 -8.86313477 1.66831055 -7.00390625 1.53515625 C-5.87799072 1.456604 -4.7520752 1.37805176 -3.59204102 1.29711914 C-1.07330645 1.28063312 -1.07330645 1.28063312 0 0 Z " fill="#9C78D5" transform="translate(153,365)"/>
<path d="M0 0 C20.46 0 40.92 0 62 0 C62 0.99 62 1.98 62 3 C61.01 3 60.02 3 59 3 C59.33 2.34 59.66 1.68 60 1 C40.2 1 20.4 1 0 1 C0 0.67 0 0.34 0 0 Z " fill="#E1C6FF" transform="translate(213,313)"/>
<path d="M0 0 C4.28806873 0.47645208 6.26647487 1.65902484 9 5 C9 5.66 9 6.32 9 7 C8.34 7 7.68 7 7 7 C7.33 8.65 7.66 10.3 8 12 C8.99 12.33 9.98 12.66 11 13 C11 13.99 11 14.98 11 16 C7.5819695 14.8606565 6.99651822 14.02589085 4.9375 11.1875 C4.43089844 10.50042969 3.92429687 9.81335938 3.40234375 9.10546875 C1.27284379 5.90825294 0 3.89615989 0 0 Z " fill="#7E53C4" transform="translate(292,195)"/>
<path d="M0 0 C0.99773437 0.02320313 1.99546875 0.04640625 3.0234375 0.0703125 C4.52777344 0.09738281 4.52777344 0.09738281 6.0625 0.125 C6.83335937 0.14820313 7.60421875 0.17140625 8.3984375 0.1953125 C6.29854713 2.29520287 4.82634856 3.00239324 2.1171875 4.140625 C1.27542969 4.49511719 0.43367188 4.84960938 -0.43359375 5.21484375 C-1.31402344 5.57964844 -2.19445312 5.94445312 -3.1015625 6.3203125 C-3.98199219 6.69285156 -4.86242187 7.06539062 -5.76953125 7.44921875 C-12.33802656 10.1953125 -12.33802656 10.1953125 -14.6015625 10.1953125 C-14.6015625 9.2053125 -14.6015625 8.2153125 -14.6015625 7.1953125 C-13.90289062 6.85757813 -13.20421875 6.51984375 -12.484375 6.171875 C-11.57429688 5.72585937 -10.66421875 5.27984375 -9.7265625 4.8203125 C-8.82164062 4.37945312 -7.91671875 3.93859375 -6.984375 3.484375 C-0.6311483 0.04738351 -0.6311483 0.04738351 0 0 Z " fill="#9772D5" transform="translate(293.6015625,139.8046875)"/>
<path d="M0 0 C3.84488782 3.49535256 5.19600879 6.9080557 6 12 C6 12.66 6 13.32 6 14 C1.545 13.01 1.545 13.01 -3 12 C-3.1875 9.1875 -3.1875 9.1875 -3 6 C-1.5 4.3125 -1.5 4.3125 0 3 C0 2.01 0 1.02 0 0 Z " fill="#7740D4" transform="translate(195,284)"/>
<path d="M0 0 C6.98599978 -0.33586537 13.21032098 0.92792163 20 2.5 C21.06089844 2.73847656 22.12179687 2.97695312 23.21484375 3.22265625 C25.81171356 3.80753684 28.40655735 4.40013876 31 5 C31 5.33 31 5.66 31 6 C27.91595192 5.88979143 24.83308808 5.75924186 21.75 5.625 C20.44095703 5.57859375 20.44095703 5.57859375 19.10546875 5.53125 C18.26113281 5.49257812 17.41679687 5.45390625 16.546875 5.4140625 C15.77182617 5.3826416 14.99677734 5.3512207 14.19824219 5.31884766 C11.78081898 4.96820853 10.13589271 4.15478043 8 3 C5.33646245 2.48479018 2.70500869 2.27050087 0 2 C0 1.34 0 0.68 0 0 Z " fill="#9F7BD4" transform="translate(269,76)"/>
<path d="M0 0 C2.81631641 2.49493496 4.40955981 5.26562818 6.1875 8.5625 C6.71730469 9.53316406 7.24710938 10.50382812 7.79296875 11.50390625 C9 14 9 14 9 16 C5.13862539 14.88449178 2.70478873 13.97526761 0 11 C-0.66 11 -1.32 11 -2 11 C-2 9.35 -2 7.7 -2 6 C-1.01 6 -0.02 6 1 6 C0.67 4.02 0.34 2.04 0 0 Z " fill="#7E58C6" transform="translate(184,262)"/>
<path d="M0 0 C-1.31871094 0.73476562 -1.31871094 0.73476562 -2.6640625 1.484375 C-6.79506755 4.23837837 -8.90939522 8.03389031 -11.375 12.25 C-11.82488281 12.99507812 -12.27476562 13.74015625 -12.73828125 14.5078125 C-13.83720222 16.33155368 -14.92024641 18.16484568 -16 20 C-16.33 18.68 -16.66 17.36 -17 16 C-16.34 16 -15.68 16 -15 16 C-14.87625 14.700625 -14.7525 13.40125 -14.625 12.0625 C-14.4140625 9.84765625 -14.4140625 9.84765625 -14 8 C-13.34 7.67 -12.68 7.34 -12 7 C-11.34786708 4.97536745 -11.34786708 4.97536745 -11 3 C-10.01 3 -9.02 3 -8 3 C-7.67 2.01 -7.34 1.02 -7 0 C-2.25 -1.125 -2.25 -1.125 0 0 Z " fill="#9D7DD1" transform="translate(221,183)"/>
<path d="M0 0 C0.66 0.33 1.32 0.66 2 1 C-0.76112573 3.89918201 -3.83347647 6.15161925 -7.0625 8.5 C-9.01186622 9.93579794 -9.01186622 9.93579794 -10.5625 11.61328125 C-13.43364291 14.38299791 -17.13160481 15 -21 15 C-14.75082311 8.95849969 -7.74917194 3.95141912 0 0 Z " fill="#9D7ADD" transform="translate(161,98)"/>
<path d="M0 0 C0.66 0 1.32 0 2 0 C2 16.83 2 33.66 2 51 C1.67 51 1.34 51 1 51 C0.67 36.15 0.34 21.3 0 6 C-0.33 6 -0.66 6 -1 6 C-1.042721 4.33388095 -1.04063832 2.66617115 -1 1 C-0.67 0.67 -0.34 0.34 0 0 Z " fill="#7148C1" transform="translate(316,261)"/>
<path d="M0 0 C0.99 0.495 0.99 0.495 2 1 C2.47597366 3.70599842 2.84093629 6.33595404 3.125 9.0625 C3.21136719 9.82111328 3.29773438 10.57972656 3.38671875 11.36132812 C3.59939517 13.23996986 3.80075459 15.11988636 4 17 C4.66 17 5.32 17 6 17 C6.1958009 18.91583647 6.38132214 20.83272539 6.5625 22.75 C6.66691406 23.81734375 6.77132812 24.8846875 6.87890625 25.984375 C6.98730119 28.68375875 6.71552316 30.44628099 6 33 C3.01209651 22.0114293 0.2297762 11.44703256 0 0 Z " fill="#BDA0E4" transform="translate(76,271)"/>
<path d="M0 0 C2.58423689 4.99619133 3.26769252 9.36898183 3.5625 14.9375 C3.62401245 16.07070679 3.62401245 16.07070679 3.68676758 17.22680664 C4.43348335 31.81945716 4.43348335 31.81945716 4 36 C3.34 36.66 2.68 37.32 2 38 C1.97494385 37.23333008 1.9498877 36.46666016 1.92407227 35.67675781 C1.80798577 32.20100717 1.68531634 28.72551908 1.5625 25.25 C1.52318359 24.0434375 1.48386719 22.836875 1.44335938 21.59375 C1.40146484 20.43359375 1.35957031 19.2734375 1.31640625 18.078125 C1.27974854 17.00981445 1.24309082 15.94150391 1.20532227 14.84082031 C1.02946151 12.40762674 0.64807485 10.3372338 0 8 C-0.12205329 5.32459184 -0.04467313 2.68038762 0 0 Z " fill="#7249B7" transform="translate(421,220)"/>
<path d="M0 0 C4.03321763 1.21934486 7.54269479 2.55954927 11 5 C11 5.66 11 6.32 11 7 C11.61875 7.268125 12.2375 7.53625 12.875 7.8125 C15 9 15 9 17 12 C15.68 12.33 14.36 12.66 13 13 C12.34 12.01 11.68 11.02 11 10 C10.154375 9.690625 9.30875 9.38125 8.4375 9.0625 C7.633125 8.711875 6.82875 8.36125 6 8 C5.1875 5.875 5.1875 5.875 5 4 C4.01 4 3.02 4 2 4 C2 3.34 2 2.68 2 2 C1.34 2 0.68 2 0 2 C0 1.34 0 0.68 0 0 Z " fill="#9771D4" transform="translate(361,240)"/>
<path d="M0 0 C0.33 0 0.66 0 1 0 C0.54713362 7.62722316 -0.05847592 15.22296133 -0.9375 22.8125 C-1.04940674 23.86147461 -1.04940674 23.86147461 -1.16357422 24.93164062 C-1.37033789 26.63141557 -1.67640046 28.31855139 -2 30 C-2.66 30.33 -3.32 30.66 -4 31 C-3.76322202 27.06651632 -3.5147127 23.13396656 -3.25537109 19.2019043 C-3.12627889 17.20726057 -3.00645202 15.21202426 -2.88671875 13.21679688 C-2.80292969 11.96318359 -2.71914062 10.70957031 -2.6328125 9.41796875 C-2.52283936 7.68196411 -2.52283936 7.68196411 -2.41064453 5.91088867 C-2 3 -2 3 0 0 Z " fill="#7447C7" transform="translate(179,150)"/>
<path d="M0 0 C0.7425 0.0825 1.485 0.165 2.25 0.25 C2.25 0.91 2.25 1.57 2.25 2.25 C-0.06 2.91 -2.37 3.57 -4.75 4.25 C-4.75 4.91 -4.75 5.57 -4.75 6.25 C-5.59304687 6.52714844 -6.43609375 6.80429687 -7.3046875 7.08984375 C-8.94824219 7.63318359 -8.94824219 7.63318359 -10.625 8.1875 C-11.71554688 8.54714844 -12.80609375 8.90679687 -13.9296875 9.27734375 C-16.65758682 10.14914074 -16.65758682 10.14914074 -18.75 11.25 C-19.08 10.26 -19.41 9.27 -19.75 8.25 C-16.69269582 6.05256262 -14.38577263 5.08900636 -10.6875 4.8125 C-5.71534431 4.10219204 -4.6036452 0.4185132 0 0 Z " fill="#7641CF" transform="translate(257.75,332.75)"/>
<path d="M0 0 C0.66 0.99 1.32 1.98 2 3 C1.34 3 0.68 3 0 3 C-0.1546875 4.2065625 -0.1546875 4.2065625 -0.3125 5.4375 C-0.86847463 8.31845946 -1.5208318 11.01297489 -2.375 13.8125 C-2.60960938 14.58207031 -2.84421875 15.35164062 -3.0859375 16.14453125 C-3.38757813 16.75683594 -3.68921875 17.36914062 -4 18 C-4.99 18.33 -5.98 18.66 -7 19 C-7.66 19.66 -8.32 20.32 -9 21 C-8.38367054 16.04001528 -6.20164371 12.06328034 -3.9375 7.6875 C-3.37192383 6.57665039 -3.37192383 6.57665039 -2.79492188 5.44335938 C-1.86871843 3.62612478 -0.93509371 1.81267596 0 0 Z " fill="#AD8ED7" transform="translate(96,164)"/>
<path d="M0 0 C-1.72721684 1.27348212 -3.45686238 2.54367057 -5.1875 3.8125 C-6.15042969 4.52019531 -7.11335938 5.22789062 -8.10546875 5.95703125 C-10.69142333 7.78220567 -13.19102559 9.53972142 -16 11 C-16.66 10.67 -17.32 10.34 -18 10 C-17.34 8.35 -16.68 6.7 -16 5 C-13.69 5 -11.38 5 -9 5 C-9.33 4.01 -9.66 3.02 -10 2 C-3.375 -1.125 -3.375 -1.125 0 0 Z " fill="#A07FD5" transform="translate(355,391)"/>
<path d="M0 0 C1.06513937 3.36653887 0.97679383 6.13898592 0.66015625 9.640625 C0.56669922 10.71054688 0.47324219 11.78046875 0.37695312 12.8828125 C0.22129883 14.54957031 0.22129883 14.54957031 0.0625 16.25 C-0.08735352 17.93996094 -0.08735352 17.93996094 -0.24023438 19.6640625 C-0.48753932 22.44329908 -0.74101284 25.22183173 -1 28 C-1.33 28 -1.66 28 -2 28 C-3.89195063 19.48622217 -3.31682379 10.55935463 -2 2 C-1.34 2 -0.68 2 0 2 C0 1.34 0 0.68 0 0 Z " fill="#9D7BD7" transform="translate(186,152)"/>
<path d="M0 0 C2 1.1875 2 1.1875 4 3 C4.25 5.6875 4.25 5.6875 4 8 C3.01 8 2.02 8 1 8 C1.20625 9.11375 1.4125 10.2275 1.625 11.375 C1.74875 12.57125 1.8725 13.7675 2 15 C1.34 15.66 0.68 16.32 0 17 C-1.77204606 11.05843378 -2.93083614 5.86167229 0 0 Z " fill="#7540D1" transform="translate(412,297)"/>
<path d="M0 0 C0 0.66 0 1.32 0 2 C-0.99 2 -1.98 2 -3 2 C-2.67 2.99 -2.34 3.98 -2 5 C-4 7 -4 7 -6.5 7.9375 C-9.30191747 8.8583474 -9.30191747 8.8583474 -11 12 C-11.99 12.66 -12.98 13.32 -14 14 C-14.66 14.66 -15.32 15.32 -16 16 C-16.99 15.34 -17.98 14.68 -19 14 C-17.8803014 12.99406757 -16.7540588 11.9954151 -15.625 11 C-14.99851563 10.443125 -14.37203125 9.88625 -13.7265625 9.3125 C-12 8 -12 8 -10 8 C-9.67 7.34 -9.34 6.68 -9 6 C-3.29268293 0 -3.29268293 0 0 0 Z " fill="#7641D3" transform="translate(170,94)"/>
<path d="M0 0 C0.33 0 0.66 0 1 0 C1.30028643 10.52670777 0.41193641 20.58696894 -1 31 C-1.33 31 -1.66 31 -2 31 C-2 22.42 -2 13.84 -2 5 C-1.67 5 -1.34 5 -1 5 C-0.67 3.35 -0.34 1.7 0 0 Z " fill="#B698E4" transform="translate(317,315)"/>
<path d="M0 0 C4.87549176 1.30108431 7.7234779 3.17085748 11.375 6.625 C12.24898437 7.44226563 13.12296875 8.25953125 14.0234375 9.1015625 C15.00183594 10.04128906 15.00183594 10.04128906 16 11 C15.67 11.66 15.34 12.32 15 13 C13.68 12.67 12.36 12.34 11 12 C10.938125 11.38125 10.87625 10.7625 10.8125 10.125 C10.18108908 7.75620163 10.18108908 7.75620163 7.625 6.8125 C6.75875 6.544375 5.8925 6.27625 5 6 C4.01 5.67 3.02 5.34 2 5 C0.8125 2.4375 0.8125 2.4375 0 0 Z " fill="#9A77D9" transform="translate(114,249)"/>
<path d="M0 0 C5.85243483 0.36577718 10.57752758 1.99820178 15 6 C15.7265625 8.16796875 15.7265625 8.16796875 16 10 C10.65697176 8.49299203 5.53804169 6.21962115 1 3 C0.67 2.01 0.34 1.02 0 0 Z " fill="#9D77D3" transform="translate(288,186)"/>
<path d="M0 0 C5.95507399 0.3916035 10.62819824 1.37124595 16 4 C16 4.99 16 5.98 16 7 C14.1875 7.6875 14.1875 7.6875 12 8 C10.97803008 7.02246356 9.98020375 6.0194119 9 5 C6.39388923 4.27802838 6.39388923 4.27802838 4 4 C4 3.34 4 2.68 4 2 C2.68 1.67 1.36 1.34 0 1 C0 0.67 0 0.34 0 0 Z " fill="#8E65D5" transform="translate(303,84)"/>
<path d="M0 0 C0.66 0.99 1.32 1.98 2 3 C-4.96779403 4.32719886 -11.92988911 4.08825381 -19 4 C-13.5081775 0.338785 -6.530847 -0.66641296 0 0 Z " fill="#946ED4" transform="translate(275,421)"/>
<path d="M0 0 C1.98 0.66 3.96 1.32 6 2 C6 2.66 6 3.32 6 4 C4.04414675 5.00484204 2.08523763 6.00373805 0.125 7 C-0.96554687 7.556875 -2.05609375 8.11375 -3.1796875 8.6875 C-6 10 -6 10 -8 10 C-8 9.34 -8 8.68 -8 8 C-6.35 7.67 -4.7 7.34 -3 7 C-2.690625 6.030625 -2.38125 5.06125 -2.0625 4.0625 C-1 1 -1 1 0 0 Z " fill="#8F67D4" transform="translate(329,400)"/>
<path d="M0 0 C0 0.33 0 0.66 0 1 C-10.93860058 3.12792712 -20.96119299 2.92615841 -32 2 C-32 1.67 -32 1.34 -32 1 C-27.98024251 0.63285166 -23.95911887 0.28361378 -19.9375 -0.0625 C-18.80376953 -0.16626953 -17.67003906 -0.27003906 -16.50195312 -0.37695312 C-10.79458035 -0.85950068 -5.62336598 -1.16711369 0 0 Z " fill="#AD90DE" transform="translate(161,373)"/>
<path d="M0 0 C0.66 0 1.32 0 2 0 C2.0582253 3.08325358 2.09367134 6.16636505 2.125 9.25 C2.14175781 10.12269531 2.15851563 10.99539063 2.17578125 11.89453125 C2.18222656 12.73886719 2.18867188 13.58320313 2.1953125 14.453125 C2.20578613 15.22817383 2.21625977 16.00322266 2.22705078 16.80175781 C1.97326556 19.25883539 1.22444152 20.87311542 0 23 C-0.16965655 20.6460153 -0.3357935 18.29186616 -0.5 15.9375 C-0.5928125 14.62652344 -0.685625 13.31554687 -0.78125 11.96484375 C-0.98380352 8.29356114 -1.11236598 4.67530392 -1 1 C-0.67 0.67 -0.34 0.34 0 0 Z " fill="#7643D3" transform="translate(313,327)"/>
<path d="M0 0 C0.81434143 2.85160391 1.11881242 5.36626131 1.09765625 8.328125 C1.09443359 9.12734375 1.09121094 9.9265625 1.08789062 10.75 C1.07951172 11.575 1.07113281 12.4 1.0625 13.25 C1.05798828 14.09046875 1.05347656 14.9309375 1.04882812 15.796875 C1.03707961 17.86461401 1.01914522 19.93231624 1 22 C-2.09874846 19.17070792 -2.9100625 17.12421871 -3.25 12.875 C-2.94888129 8.20765996 -1.65444493 4.34291795 0 0 Z " fill="#A789D8" transform="translate(86,185)"/>
<path d="M0 0 C1.65 0 3.3 0 5 0 C5 0.66 5 1.32 5 2 C6.32 2 7.64 2 9 2 C9.33 2.66 9.66 3.32 10 4 C12.30965848 5.05352843 14.6429774 6.05719096 17 7 C17 7.99 17 8.98 17 10 C12.79673379 10 10.20405841 7.80426228 6.8125 5.5625 C6.15830078 5.14162109 5.50410156 4.72074219 4.83007812 4.28710938 C3.19849463 3.22377289 1.5963438 2.11554276 0 1 C0 0.67 0 0.34 0 0 Z " fill="#AB8EDA" transform="translate(331,212)"/>
<path d="M0 0 C0.28875 0.598125 0.5775 1.19625 0.875 1.8125 C2.04742026 4.19327792 2.04742026 4.19327792 4 7 C4.66 6.67 5.32 6.34 6 6 C6.13277344 6.60328125 6.26554687 7.2065625 6.40234375 7.828125 C6.57894531 8.62734375 6.75554687 9.4265625 6.9375 10.25 C7.11152344 11.03890625 7.28554687 11.8278125 7.46484375 12.640625 C7.947556 14.76878703 8.46163178 16.88532842 9 19 C6.07425011 16.23997886 3.80903454 13.47906555 1.6875 10.0625 C1.15511719 9.22847656 0.62273437 8.39445312 0.07421875 7.53515625 C-1.1963869 4.53652691 -0.93787627 3.065923 0 0 Z " fill="#A887DE" transform="translate(99,334)"/>
<path d="M0 0 C3.3 0 6.6 0 10 0 C0.57142857 8 0.57142857 8 -4 8 C-4 7.01 -4 6.02 -4 5 C-3.34 5 -2.68 5 -2 5 C-1.34 3.35 -0.68 1.7 0 0 Z " fill="#885BCB" transform="translate(253,322)"/>
<path d="M0 0 C7.45158451 1.16431008 13.03604073 3.26042209 18 9 C11.25 8.25 11.25 8.25 9 6 C8.21625 5.71125 7.4325 5.4225 6.625 5.125 C3.69882485 3.87092493 2.11260516 2.34733907 0 0 Z " fill="#7441CF" transform="translate(355,228)"/>
<path d="M0 0 C-0.60355408 3.85025879 -1.76772603 6.86101159 -3.5625 10.3125 C-4.01753906 11.19550781 -4.47257813 12.07851562 -4.94140625 12.98828125 C-5.29074219 13.65214844 -5.64007813 14.31601563 -6 15 C-6.33 15 -6.66 15 -7 15 C-7 12.69 -7 10.38 -7 8 C-6.34 8 -5.68 8 -5 8 C-5 6.68 -5 5.36 -5 4 C-5.99 4 -6.98 4 -8 4 C-8 3.34 -8 2.68 -8 2 C-6.68 2.33 -5.36 2.66 -4 3 C-4 2.34 -4 1.68 -4 1 C-2 0 -2 0 0 0 Z " fill="#8E6ECC" transform="translate(202,82)"/>
<path d="M0 0 C1.65 0 3.3 0 5 0 C1.95696164 2.38838945 -1.18885754 4.35892422 -4.5625 6.25 C-5.51253906 6.79140625 -6.46257812 7.3328125 -7.44140625 7.890625 C-10 9 -10 9 -13 8 C-12.01 7.67 -11.02 7.34 -10 7 C-10 6.01 -10 5.02 -10 4 C-6.5980513 1.90649311 -3.94727588 1.82057837 0 2 C0 1.34 0 0.68 0 0 Z " fill="#895FCE" transform="translate(244,330)"/>
<path d="M0 0 C4.77609498 1.64178265 8.79382904 4.26546702 13 7 C7.96396997 8.67867668 3.72750717 7.08566493 -1 5 C-0.67 3.35 -0.34 1.7 0 0 Z " fill="#9673D4" transform="translate(169,288)"/>
<path d="M0 0 C4.29 0 8.58 0 13 0 C13 0.66 13 1.32 13 2 C10.69 2.33 8.38 2.66 6 3 C6.33 3.99 6.66 4.98 7 6 C2.25 5.25 2.25 5.25 0 3 C0 2.01 0 1.02 0 0 Z " fill="#865FC1" transform="translate(129,375)"/>
<path d="M0 0 C0.66 0.33 1.32 0.66 2 1 C2 1.66 2 2.32 2 3 C1.01 3.33 0.02 3.66 -1 4 C-2.66710346 5.49985609 -2.66710346 5.49985609 -4 7 C-4.99 6.67 -5.98 6.34 -7 6 C-7.66 6.66 -8.32 7.32 -9 8 C-12 10 -12 10 -14.1875 9.625 C-14.785625 9.41875 -15.38375 9.2125 -16 9 C-13.70870707 7.68684387 -11.4169845 6.37444807 -9.125 5.0625 C-8.47402344 4.68931641 -7.82304687 4.31613281 -7.15234375 3.93164062 C-2.2265625 1.11328125 -2.2265625 1.11328125 0 0 Z " fill="#A17ADB" transform="translate(258,165)"/>
<path d="M0 0 C-2.05952358 1.29662538 -4.12237057 2.58735727 -6.1875 3.875 C-6.76564453 4.23980469 -7.34378906 4.60460937 -7.93945312 4.98046875 C-11.20278033 7.0085252 -14.38059362 8.70492051 -18 10 C-17.9375 8.1875 -17.9375 8.1875 -17 6 C-14.69631264 4.93347808 -12.35981813 3.93578995 -10 3 C-9.46375 2.46375 -8.9275 1.9275 -8.375 1.375 C-5.93704506 -1.06295494 -3.03975793 -1.51987897 0 0 Z " fill="#B495DF" transform="translate(239,172)"/>
<path d="M0 0 C3.9252025 3.70090521 6.94580156 7.54959656 10 12 C9.67 12.66 9.34 13.32 9 14 C7.02 13.01 5.04 12.02 3 11 C3 10.01 3 9.02 3 8 C2.34 8 1.68 8 1 8 C0.67 5.36 0.34 2.72 0 0 Z " fill="#B097DD" transform="translate(87,216)"/>
<path d="M0 0 C0.33 0 0.66 0 1 0 C1 4.62 1 9.24 1 14 C0.67 14 0.34 14 0 14 C-0.33 16.64 -0.66 19.28 -1 22 C-1.66 22 -2.32 22 -3 22 C-3.33 22.99 -3.66 23.98 -4 25 C-3.24595285 16.55467195 -1.62171958 8.31258777 0 0 Z " fill="#BEA5E7" transform="translate(318,351)"/>
<path d="M0 0 C2.97 0.99 5.94 1.98 9 3 C9 3.66 9 4.32 9 5 C9.78375 5.061875 10.5675 5.12375 11.375 5.1875 C12.674375 5.5896875 12.674375 5.5896875 14 6 C15.3125 8.5625 15.3125 8.5625 16 11 C11.87321179 9.55901911 8.69813572 7.52700506 5.1875 4.9375 C4.21167969 4.22464844 3.23585937 3.51179688 2.23046875 2.77734375 C1.49441406 2.19082031 0.75835937 1.60429687 0 1 C0 0.67 0 0.34 0 0 Z " fill="#AB89D9" transform="translate(145,266)"/>
<path d="M0 0 C4.31392226 0.4793247 6.16569547 1.7457985 9 5 C8.34 6.32 7.68 7.64 7 9 C7 8.34 7 7.68 7 7 C6.236875 6.71125 5.47375 6.4225 4.6875 6.125 C2 5 2 5 -1 3 C-0.67 2.01 -0.34 1.02 0 0 Z " fill="#8D63D5" transform="translate(319,211)"/>
<path d="M0 0 C3.99996286 1.33332095 4.83782337 3.4957827 7 7 C6.67 7.66 6.34 8.32 6 9 C5.21625 8.814375 4.4325 8.62875 3.625 8.4375 C1.02910225 7.74037734 1.02910225 7.74037734 -1 9 C-1.09765625 2.84765625 -1.09765625 2.84765625 -1 1 C-0.67 0.67 -0.34 0.34 0 0 Z " fill="#9E7FD1" transform="translate(80,207)"/>
<path d="M0 0 C0 0.66 0 1.32 0 2 C-0.99 2 -1.98 2 -3 2 C-3.33 3.65 -3.66 5.3 -4 7 C-7.3 7 -10.6 7 -14 7 C-14.33 7.66 -14.66 8.32 -15 9 C-15.66 8.34 -16.32 7.68 -17 7 C-14.54379149 5.82866942 -12.08525083 4.66278278 -9.625 3.5 C-8.92632812 3.16613281 -8.22765625 2.83226562 -7.5078125 2.48828125 C-2.2265625 0 -2.2265625 0 0 0 Z " fill="#AC86DC" transform="translate(227,347)"/>
<path d="M0 0 C4.39383706 1.59623144 8.28995807 3.78024333 12.3125 6.125 C12.95767578 6.49753906 13.60285156 6.87007813 14.26757812 7.25390625 C15.84675945 8.16632213 17.42361864 9.08275509 19 10 C18.01 10.66 17.02 11.32 16 12 C16 11.34 16 10.68 16 10 C15.01 10 14.02 10 13 10 C13 9.34 13 8.68 13 8 C11.35 7.67 9.7 7.34 8 7 C8 6.34 8 5.68 8 5 C7.05125 4.9175 6.1025 4.835 5.125 4.75 C2 4 2 4 0.625 1.9375 C0.41875 1.298125 0.2125 0.65875 0 0 Z " fill="#AE93DD" transform="translate(182,296)"/>
<path d="M0 0 C4.30581375 5.13919706 5.3422801 8.26849127 5 15 C4 18.4375 4 18.4375 3 21 C1.5393715 18.35261084 1 17.10551666 1 14 C1.99 14 2.98 14 4 14 C2.73025028 9.58477891 2.73025028 9.58477891 0 6 C-0.125 2.875 -0.125 2.875 0 0 Z " fill="#A586DA" transform="translate(412,291)"/>
<path d="M0 0 C2.42441059 0.87953241 3.57497004 1.94371799 5.328125 3.81640625 C5.84890625 4.36425781 6.3696875 4.91210938 6.90625 5.4765625 C7.29296875 5.89808594 7.6796875 6.31960937 8.078125 6.75390625 C7.748125 7.74390625 7.418125 8.73390625 7.078125 9.75390625 C3.71795607 8.63384994 2.38747587 7.38178828 0.078125 4.75390625 C0.078125 4.09390625 0.078125 3.43390625 0.078125 2.75390625 C-1.241875 2.09390625 -2.561875 1.43390625 -3.921875 0.75390625 C-1.921875 -0.24609375 -1.921875 -0.24609375 0 0 Z " fill="#7F54C9" transform="translate(377.921875,131.24609375)"/>
<path d="M0 0 C-0.804375 0.28875 -1.60875 0.5775 -2.4375 0.875 C-5.1326468 1.73262568 -5.1326468 1.73262568 -6 4 C-8.31 3.67 -10.62 3.34 -13 3 C-13 3.66 -13 4.32 -13 5 C-15.97 5 -18.94 5 -22 5 C-18.18917046 3.09458523 -14.52196292 1.90352818 -10.4375 0.8125 C-9.76525391 0.62236328 -9.09300781 0.43222656 -8.40039062 0.23632812 C-5.06224704 -0.66202035 -3.34942122 -1.11647374 0 0 Z " fill="#AF92DE" transform="translate(181,367)"/>
<path d="M0 0 C0.99 0.495 0.99 0.495 2 1 C2 1.66 2 2.32 2 3 C2.99 3.33 3.98 3.66 5 4 C6.71054387 6.21593183 7.75321724 8.46190652 9 11 C8.67 11.66 8.34 12.32 8 13 C5.69 12.67 3.38 12.34 1 12 C1 11.34 1 10.68 1 10 C1.99 9.34 2.98 8.68 4 8 C3.01 6.576875 3.01 6.576875 2 5.125 C0 2 0 2 0 0 Z " fill="#A383D7" transform="translate(175,249)"/>
<path d="M0 0 C3.03947312 2.48154244 3.57545806 4.55627676 4.1875 8.375 C4.34605469 9.31085938 4.50460937 10.24671875 4.66796875 11.2109375 C4.98101323 13.84051116 5.06251264 16.35523459 5 19 C0.87232954 12.8084943 -0.39590347 7.39019811 0 0 Z " fill="#A889D6" transform="translate(419,208)"/>
<path d="M0 0 C0.66 0.33 1.32 0.66 2 1 C1.67 1.99 1.34 2.98 1 4 C-0.65 4 -2.3 4 -4 4 C-4.33 4.99 -4.66 5.98 -5 7 C-8.5625 8.6875 -8.5625 8.6875 -12 10 C-12.66 9.34 -13.32 8.68 -14 8 C-11.7136988 6.63597957 -9.42178251 5.28365726 -7.125 3.9375 C-6.47402344 3.54755859 -5.82304687 3.15761719 -5.15234375 2.75585938 C-3.46934275 1.77555467 -1.73703801 0.88101568 0 0 Z " fill="#A17AD6" transform="translate(259,329)"/>
<path d="M0 0 C0.556875 0.28875 1.11375 0.5775 1.6875 0.875 C4.02189686 2.06635767 4.02189686 2.06635767 6.6875 2.9375 C7.450625 3.288125 8.21375 3.63875 9 4 C9.33 4.99 9.66 5.98 10 7 C10.66 7 11.32 7 12 7 C12.33 7.99 12.66 8.98 13 10 C9.37723685 8.6744419 6.36494652 7.05653045 3.1875 4.875 C2.39730469 4.33617187 1.60710937 3.79734375 0.79296875 3.2421875 C0.20128906 2.83226562 -0.39039063 2.42234375 -1 2 C-0.67 1.34 -0.34 0.68 0 0 Z " fill="#936CD1" transform="translate(162,276)"/>
<path d="M0 0 C3.48331435 3.01887244 4.79157144 5.56909529 6 10 C1.40693504 8.5140084 -1.43569245 6.14985318 -5 3 C-4.360625 2.690625 -3.72125 2.38125 -3.0625 2.0625 C-1.06389179 1.1654837 -1.06389179 1.1654837 0 0 Z " fill="#9D74DC" transform="translate(139,256)"/>
<path d="M0 0 C0.99 0 1.98 0 3 0 C1.59155282 3.21524305 -0.10344786 5.32183868 -2.625 7.75 C-3.57246094 8.67039062 -3.57246094 8.67039062 -4.5390625 9.609375 C-5.02117187 10.06828125 -5.50328125 10.5271875 -6 11 C-6.66 9.68 -7.32 8.36 -8 7 C-7.01 7 -6.02 7 -5 7 C-5 6.34 -5 5.68 -5 5 C-4.34 5 -3.68 5 -3 5 C-3 4.01 -3 3.02 -3 2 C-2.01 2 -1.02 2 0 2 C0 1.34 0 0.68 0 0 Z " fill="#A180D7" transform="translate(377,367)"/>
<path d="M0 0 C4.52615993 3.67832017 8.39424999 7.41086363 12 12 C9.625 11.75 9.625 11.75 7 11 C6.71125 10.401875 6.4225 9.80375 6.125 9.1875 C4.34705297 5.73038078 1.40380243 4.76493459 -2 3 C-1.34 2.01 -0.68 1.02 0 0 Z " fill="#7242C7" transform="translate(101,236)"/>
<path d="M0 0 C0.66 0.66 1.32 1.32 2 2 C3.32 2 4.64 2 6 2 C4.94124926 5.40312738 3.99097846 8.01353231 2 11 C1.34 11 0.68 11 0 11 C0 7.37 0 3.74 0 0 Z " fill="#977AD1" transform="translate(182,229)"/>
<path d="M0 0 C0.33 0 0.66 0 1 0 C1 2.97 1 5.94 1 9 C2.65 8.67 4.3 8.34 6 8 C5.67 9.65 5.34 11.3 5 13 C3.0625 13.5625 3.0625 13.5625 1 14 C0 13 0 13 -0.09765625 10.05859375 C-0.08605469 8.86363281 -0.07445312 7.66867188 -0.0625 6.4375 C-0.05347656 5.23996094 -0.04445312 4.04242188 -0.03515625 2.80859375 C-0.02355469 1.88175781 -0.01195312 0.95492187 0 0 Z " fill="#7544D2" transform="translate(183,218)"/>
<path d="M0 0 C2.33333333 2.33333333 4.66666667 4.66666667 7 7 C6.625 9.125 6.625 9.125 6 11 C5.4225 10.175 4.845 9.35 4.25 8.5 C3.13625 7.2625 3.13625 7.2625 2 6 C0.68 6 -0.64 6 -2 6 C-1.49396008 3.83125748 -1.00016187 2.00032373 0 0 Z " fill="#9467DB" transform="translate(386,140)"/>
<path d="M0 0 C0.99 0 1.98 0 3 0 C2.85820962 2.22942748 2.71140302 4.45853628 2.5625 6.6875 C2.48128906 7.92886719 2.40007812 9.17023438 2.31640625 10.44921875 C2.05508683 13.38180337 1.65201621 16.13441617 1 19 C0.67 19 0.34 19 0 19 C-1.31909709 12.5510809 -0.69508823 6.51244208 0 0 Z " fill="#7746CE" transform="translate(180,130)"/>
<path d="M0 0 C3.40320742 1.01176437 4.75725331 1.64843582 6.8125 4.625 C7.204375 5.40875 7.59625 6.1925 8 7 C3.2482602 6.56802365 1.07999946 5.67230705 -2 2 C-1.34 1.34 -0.68 0.68 0 0 Z " fill="#936DD1" transform="translate(310,196)"/>
<path d="M0 0 C0.66 0.33 1.32 0.66 2 1 C2 1.99 2 2.98 2 4 C2.598125 4.103125 3.19625 4.20625 3.8125 4.3125 C7.18795481 5.37335723 8.52629909 7.12739306 10.1875 10.1875 C10.455625 10.785625 10.72375 11.38375 11 12 C7.52224821 10.48446596 5.0442016 8.4226544 2.25 5.875 C1.45078125 5.15054688 0.6515625 4.42609375 -0.171875 3.6796875 C-0.77515625 3.12539062 -1.3784375 2.57109375 -2 2 C-1.34 1.34 -0.68 0.68 0 0 Z " fill="#A280D4" transform="translate(122,245)"/>
<path d="M0 0 C-3.12488567 2.52394612 -6.31314387 4.39701907 -10 6 C-10.66 5.67 -11.32 5.34 -12 5 C-11.67 4.01 -11.34 3.02 -11 2 C-10.01 2 -9.02 2 -8 2 C-8 1.34 -8 0.68 -8 0 C-4.94736336 -0.98120464 -3.05263664 -0.98120464 0 0 Z " fill="#A17FD7" transform="translate(273,153)"/>
<path d="M0 0 C0 0.33 0 0.66 0 1 C-2.05078125 1.22786458 -4.1015625 1.45572917 -6.15234375 1.68359375 C-8.01140229 1.81886614 -8.01140229 1.81886614 -9 3 C-11.01594582 3.23427778 -13.038474 3.41336124 -15.0625 3.5625 C-16.16722656 3.64628906 -17.27195312 3.73007813 -18.41015625 3.81640625 C-19.26480469 3.87699219 -20.11945313 3.93757812 -21 4 C-17.94877508 1.96585005 -15.70982393 1.22077221 -12.1875 0.3125 C-11.17042969 0.04050781 -10.15335937 -0.23148438 -9.10546875 -0.51171875 C-5.77631058 -1.03517129 -3.27138818 -0.72860514 0 0 Z " fill="#A584DA" transform="translate(344,134)"/>
<path d="M0 0 C4.28477792 2.30718811 7.72291137 4.32966073 11 8 C8.36 7.67 5.72 7.34 3 7 C2.67 6.01 2.34 5.02 2 4 C-0.01508358 3.26676204 -0.01508358 3.26676204 -2 3 C-1 1 -1 1 0 0 Z " fill="#A17CDA" transform="translate(350,106)"/>
<path d="M0 0 C1.65 0 3.3 0 5 0 C1.7665725 2.80178062 -1.10448769 3.74124175 -5.25 4.6875 C-6.32765625 4.93886719 -7.4053125 5.19023437 -8.515625 5.44921875 C-9.74539062 5.72185547 -9.74539062 5.72185547 -11 6 C-10.67 5.01 -10.34 4.02 -10 3 C-6.52674819 1.8422494 -3.63932552 1.93133348 0 2 C0 1.34 0 0.68 0 0 Z " fill="#A586D8" transform="translate(192,355)"/>
<path d="M0 0 C4.88007285 0.44364299 6.69772053 1.47756856 10 5 C12.1381966 5.7872678 12.1381966 5.7872678 14 6 C14 6.99 14 7.98 14 9 C13.01 9 12.02 9 11 9 C11 8.34 11 7.68 11 7 C8.03 6.505 8.03 6.505 5 6 C4.67 5.01 4.34 4.02 4 3 C2.00334686 1.31461399 2.00334686 1.31461399 0 0 Z " fill="#7543D0" transform="translate(176,295)"/>
<path d="M0 0 C0.83583327 2.37607949 1.1842383 3.54449627 0.22265625 5.921875 C-0.8515625 7.61458333 -1.92578125 9.30729167 -3 11 C-3.66 11 -4.32 11 -5 11 C-5 11.99 -5 12.98 -5 14 C-5.66 14 -6.32 14 -7 14 C-5.53967505 8.68972746 -3.01679014 4.53669968 0 0 Z " fill="#B291D9" transform="translate(314,264)"/>
<path d="M0 0 C3 1 3 1 4.6875 3.75 C5.93950669 6.85020705 6.28970125 8.71671912 6 12 C2.46804227 9.64536151 1.62378295 7.86614989 0 4 C0 2.68 0 1.36 0 0 Z " fill="#926DD5" transform="translate(402,165)"/>
<path d="M0 0 C0 0.66 0 1.32 0 2 C-0.99 2 -1.98 2 -3 2 C-3.66 3.32 -4.32 4.64 -5 6 C-6.98 6 -8.96 6 -11 6 C-10 3 -10 3 -8.22265625 2.05078125 C-7.50980469 1.80714844 -6.79695313 1.56351563 -6.0625 1.3125 C-5.35222656 1.06113281 -4.64195312 0.80976563 -3.91015625 0.55078125 C-2 0 -2 0 0 0 Z " fill="#865ED1" transform="translate(270,161)"/>
<path d="M0 0 C5.875 3.75 5.875 3.75 7 6 C5.68 6.99 4.36 7.98 3 9 C2.67 8.01 2.34 7.02 2 6 C1.34 6 0.68 6 0 6 C0 4.02 0 2.04 0 0 Z " fill="#986CD9" transform="translate(378,252)"/>
<path d="M0 0 C4.72727273 4.36363636 4.72727273 4.36363636 5.9375 7.1875 C5.9684375 8.0846875 5.9684375 8.0846875 6 9 C5.34 9.66 4.68 10.32 4 11 C3.13341385 9.73760288 2.28207941 8.46472499 1.4375 7.1875 C0.72400391 6.12595703 0.72400391 6.12595703 -0.00390625 5.04296875 C-1 3 -1 3 0 0 Z " fill="#A483D9" transform="translate(305,216)"/>
<path d="M0 0 C0.33 0 0.66 0 1 0 C0.33644956 6.74609618 -0.71865793 13.34448534 -2 20 C-2.33 20 -2.66 20 -3 20 C-3.33452052 12.56621057 -3.13902852 6.80122845 0 0 Z " fill="#C1A6E6" transform="translate(185,124)"/>
<path d="M0 0 C0.99 0.33 1.98 0.66 3 1 C2.40353695 4.34019306 1.31705841 6.50470633 -1 9 C-1.99 9 -2.98 9 -4 9 C-2.94124926 5.59687262 -1.99097846 2.98646769 0 0 Z " fill="#9973DB" transform="translate(299,290)"/>
<path d="M0 0 C1.98 0 3.96 0 6 0 C6 0.99 6 1.98 6 3 C6.99 3.33 7.98 3.66 9 4 C9.33 5.65 9.66 7.3 10 9 C6.78956118 7.61811547 4.95063635 6.07578097 2.75 3.375 C2.22921875 2.74335938 1.7084375 2.11171875 1.171875 1.4609375 C0.78515625 0.97882813 0.3984375 0.49671875 0 0 Z " fill="#A27EDB" transform="translate(110,237)"/>
<path d="M0 0 C3.62276315 1.3255581 6.63505348 2.94346955 9.8125 5.125 C10.60269531 5.66382813 11.39289063 6.20265625 12.20703125 6.7578125 C12.79871094 7.16773438 13.39039063 7.57765625 14 8 C10.2734375 9.1015625 10.2734375 9.1015625 7.8125 8.1875 C6 7 6 7 5 5 C4.01 4.67 3.02 4.34 2 4 C2 3.34 2 2.68 2 2 C1.34 2 0.68 2 0 2 C0 1.34 0 0.68 0 0 Z " fill="#B59ADD" transform="translate(336,221)"/>
<path d="M0 0 C3.37503669 1.1858237 5.64722731 2.27573689 8 5 C7.505 5.45375 7.01 5.9075 6.5 6.375 C4.77390663 7.87635519 4.77390663 7.87635519 5 10 C4.01 10 3.02 10 2 10 C1.67 9.01 1.34 8.02 1 7 C1.99 6.67 2.98 6.34 4 6 C4 5.34 4 4.68 4 4 C3.34 4 2.68 4 2 4 C2 3.34 2 2.68 2 2 C1.34 2 0.68 2 0 2 C0 1.34 0 0.68 0 0 Z " fill="#753FD6" transform="translate(337,224)"/>
<path d="M0 0 C8.6309795 5.96583144 8.6309795 5.96583144 11 11 C10.01 11.495 10.01 11.495 9 12 C8.34 11.01 7.68 10.02 7 9 C5.989375 8.195625 4.97875 7.39125 3.9375 6.5625 C1.002705 4.00235968 0.61052286 3.55007737 0 0 Z " fill="#B096D1" transform="translate(361,114)"/>
<path d="M0 0 C0.66 0.33 1.32 0.66 2 1 C-4.52548544 7.86893204 -4.52548544 7.86893204 -8.8125 8.25 C-9.534375 8.1675 -10.25625 8.085 -11 8 C-7.71644638 4.32241995 -4.37221763 2.18610882 0 0 Z " fill="#A888D7" transform="translate(161,98)"/>
<path d="M0 0 C4.85963179 0.60745397 8.7405518 2.72758967 13 5 C13 5.33 13 5.66 13 6 C8.02693484 5.50269348 4.36200187 4.44697666 0 2 C0 1.34 0 0.68 0 0 Z " fill="#AA8CDD" transform="translate(319,89)"/>
<path d="M0 0 C0.56203125 0.36867188 1.1240625 0.73734375 1.703125 1.1171875 C0.10162614 1.79023768 -1.50318529 2.45540977 -3.109375 3.1171875 C-4.00269531 3.4884375 -4.89601563 3.8596875 -5.81640625 4.2421875 C-8.296875 5.1171875 -8.296875 5.1171875 -11.296875 5.1171875 C-11.296875 4.4571875 -11.296875 3.7971875 -11.296875 3.1171875 C-9.88995893 2.38967962 -8.47081478 1.68578397 -7.046875 0.9921875 C-6.25796875 0.59773438 -5.4690625 0.20328125 -4.65625 -0.203125 C-2.296875 -0.8828125 -2.296875 -0.8828125 0 0 Z " fill="#9A77D0" transform="translate(319.296875,409.8828125)"/>
<path d="M0 0 C0.99 0 1.98 0 3 0 C1.77472971 4.05281712 0.30119506 7.44360764 -2 11 C-2.66 9.68 -3.32 8.36 -4 7 C-3.34 7 -2.68 7 -2 7 C-1.855625 6.21625 -1.71125 5.4325 -1.5625 4.625 C-1 2 -1 2 0 0 Z " fill="#A484D7" transform="translate(406,324)"/>
<path d="M0 0 C1.66666667 0.66666667 3.33333333 1.33333333 5 2 C5.9075 2.268125 6.815 2.53625 7.75 2.8125 C8.86375 3.4003125 8.86375 3.4003125 10 4 C10.640625 6.57421875 10.640625 6.57421875 11 9 C9.53699018 8.06981474 8.07974421 7.13055973 6.625 6.1875 C5.81289063 5.66542969 5.00078125 5.14335937 4.1640625 4.60546875 C2 3 2 3 0 0 Z " fill="#B492DA" transform="translate(362,233)"/>
<path d="M0 0 C2.375 0.3125 2.375 0.3125 5 1 C5.66 1.99 6.32 2.98 7 4 C5.68 4 4.36 4 3 4 C3.66 5.98 4.32 7.96 5 10 C2.66063182 7.87330165 1.19346152 5.93775144 0 3 C0 2.01 0 1.02 0 0 Z " fill="#C9B9DD" transform="translate(292,195)"/>
<path d="M0 0 C0 3.40117798 -0.30381171 5.05010733 -2 8 C-4.28446949 9.3348055 -6.48325871 10.11447992 -9 11 C-7.59155282 7.78475695 -5.89655214 5.67816132 -3.375 3.25 C-2.74335937 2.63640625 -2.11171875 2.0228125 -1.4609375 1.390625 C-0.73777344 0.70226562 -0.73777344 0.70226562 0 0 Z " fill="#AD8ADA" transform="translate(128,123)"/>
<path d="M0 0 C1.65 0 3.3 0 5 0 C6.125 3.75 6.125 3.75 5 6 C2.525 5.01 2.525 5.01 0 4 C0 2.68 0 1.36 0 0 Z " fill="#865AD1" transform="translate(153,393)"/>
<path d="M0 0 C0.33 0 0.66 0 1 0 C1.33266291 6.20970773 0.45029331 10.28264895 -2 16 C-2.33 16 -2.66 16 -3 16 C-3.45496035 10.23716896 -1.79099852 5.39431697 0 0 Z " fill="#A586D5" transform="translate(307,376)"/>
<path d="M0 0 C1.76885138 1.53813164 2.91177008 2.81765818 3.9375 4.9375 C4 7 4 7 2.1875 9.25 C0 11 0 11 -2 11 C-2 9.35 -2 7.7 -2 6 C-1.01 6 -0.02 6 1 6 C0.67 4.02 0.34 2.04 0 0 Z " fill="#A076EC" transform="translate(184,262)"/>
<path d="M0 0 C0.99 0.33 1.98 0.66 3 1 C3.6875 3.0625 3.6875 3.0625 4 5 C4.66 5 5.32 5 6 5 C5.67 6.32 5.34 7.64 5 9 C0.23021583 5.57553957 0.23021583 5.57553957 -0.875 2.8125 C-0.91625 2.214375 -0.9575 1.61625 -1 1 C-0.67 0.67 -0.34 0.34 0 0 Z " fill="#936ED1" transform="translate(373,238)"/>
<path d="M0 0 C1.65 0 3.3 0 5 0 C6 6.625 6 6.625 6 10 C4.99421411 8.71283353 3.99553202 7.42011342 3 6.125 C2.443125 5.40570313 1.88625 4.68640625 1.3125 3.9453125 C0 2 0 2 0 0 Z " fill="#AD87DF" transform="translate(91,214)"/>
<path d="M0 0 C0 0.33 0 0.66 0 1 C-1.670625 1.2165625 -1.670625 1.2165625 -3.375 1.4375 C-6.82142047 1.78372035 -6.82142047 1.78372035 -9 3 C-11.3494053 2.39239518 -13.68529088 1.72870472 -16 1 C-16 0.67 -16 0.34 -16 0 C-10.42289352 -1.06795656 -5.60563042 -0.82622671 0 0 Z " fill="#926BD6" transform="translate(358,132)"/>
<path d="M0 0 C4.10958767 1.45044271 7.43258745 3.51110752 11 6 C9 7 9 7 6.125 6.3125 C2.91161068 4.96287649 1.25963405 3.60727005 -1 1 C-0.67 0.67 -0.34 0.34 0 0 Z " fill="#A484D9" transform="translate(339,99)"/>
<path d="M0 0 C0 0.66 0 1.32 0 2 C-0.56589844 2.27714844 -1.13179687 2.55429688 -1.71484375 2.83984375 C-2.44832031 3.20207031 -3.18179688 3.56429687 -3.9375 3.9375 C-4.66839844 4.29714844 -5.39929688 4.65679687 -6.15234375 5.02734375 C-7.96249027 5.86371827 -7.96249027 5.86371827 -9 7 C-10.99958364 7.04080783 -13.00045254 7.04254356 -15 7 C-14.01 6.67 -13.02 6.34 -12 6 C-12 5.34 -12 4.68 -12 4 C-11.0925 3.71125 -10.185 3.4225 -9.25 3.125 C-6.11648882 2.11919787 -6.11648882 2.11919787 -3.75 0.875 C-2 0 -2 0 0 0 Z " fill="#7343C7" transform="translate(182,90)"/>
<path d="M0 0 C1.21386936 3.64160808 0.6674695 4.33165469 -0.9375 7.6875 C-1.31777344 8.49574219 -1.69804687 9.30398438 -2.08984375 10.13671875 C-2.39019531 10.75160156 -2.69054687 11.36648438 -3 12 C-3.33 12 -3.66 12 -4 12 C-3.9129995 10.37399059 -3.8048219 8.74910322 -3.6875 7.125 C-3.62949219 6.22007812 -3.57148438 5.31515625 -3.51171875 4.3828125 C-3 2 -3 2 0 0 Z " fill="#B08EDB" transform="translate(413,312)"/>
<path d="M0 0 C6.6 0 13.2 0 20 0 C20 0.99 20 1.98 20 3 C19.01 3 18.02 3 17 3 C17.33 2.34 17.66 1.68 18 1 C12.06 1 6.12 1 0 1 C0 0.67 0 0.34 0 0 Z " fill="#D4BDEF" transform="translate(255,313)"/>
<path d="M0 0 C6.70212766 1.93617021 6.70212766 1.93617021 9 5 C9 5.66 9 6.32 9 7 C6.03 6.01 3.06 5.02 0 4 C0 2.68 0 1.36 0 0 Z " fill="#8E69CE" transform="translate(201,307)"/>
<path d="M0 0 C0.66 0.66 1.32 1.32 2 2 C4.31765729 2.71927295 6.65095874 3.3909893 9 4 C9.33 5.32 9.66 6.64 10 8 C5.69235185 6.43358249 1.93828536 4.31663844 -2 2 C-1.34 1.34 -0.68 0.68 0 0 Z " fill="#966CD3" transform="translate(177,285)"/>
<path d="M0 0 C4.81033104 2.54664585 8.32442148 4.99027798 12 9 C6.54640328 7.94446515 6.54640328 7.94446515 4 7 C2.625 4.9375 2.625 4.9375 2 3 C1.34 2.67 0.68 2.34 0 2 C0 1.34 0 0.68 0 0 Z " fill="#B89FE4" transform="translate(133,263)"/>
<path d="M0 0 C1.32 0.33 2.64 0.66 4 1 C4 1.66 4 2.32 4 3 C4.99 3.33 5.98 3.66 7 4 C7 4.99 7 5.98 7 7 C7.99 7.33 8.98 7.66 10 8 C8.02 8.33 6.04 8.66 4 9 C3.896875 8.2575 3.79375 7.515 3.6875 6.75 C2.95746496 3.82985982 1.93210602 2.26812446 0 0 Z " fill="#7645CA" transform="translate(346,229)"/>
<path d="M0 0 C0.33 0.66 0.66 1.32 1 2 C3.01669827 3.13350534 3.01669827 3.13350534 5 4 C2 6 2 6 0 6 C0 5.34 0 4.68 0 4 C-1.175625 4.0928125 -1.175625 4.0928125 -2.375 4.1875 C-3.24125 4.125625 -4.1075 4.06375 -5 4 C-5.66 3.01 -6.32 2.02 -7 1 C-5.5459375 1.0309375 -5.5459375 1.0309375 -4.0625 1.0625 C-1.12534105 1.35618499 -1.12534105 1.35618499 0 0 Z " fill="#7540D5" transform="translate(336,208)"/>
<path d="M0 0 C0.33 0 0.66 0 1 0 C0.38461538 6.52307692 0.38461538 6.52307692 -1.5625 8.9375 C-2.036875 9.288125 -2.51125 9.63875 -3 10 C-3.66 9.67 -4.32 9.34 -5 9 C-3.75471468 5.55151758 -2.38532951 2.80016942 0 0 Z " fill="#A785DB" transform="translate(105,150)"/>
<path d="M0 0 C0.66 1.32 1.32 2.64 2 4 C0.37419034 3.88601335 -1.25067157 3.75844341 -2.875 3.625 C-3.77992188 3.55539062 -4.68484375 3.48578125 -5.6171875 3.4140625 C-8 3 -8 3 -10 1 C-6.59437148 0.22157062 -3.49234244 -0.09978121 0 0 Z " fill="#7640D2" transform="translate(197,411)"/>
<path d="M0 0 C-0.28127421 1.48117801 -0.57533732 2.95993249 -0.875 4.4375 C-1.03742188 5.26121094 -1.19984375 6.08492188 -1.3671875 6.93359375 C-1.68042969 7.95646484 -1.68042969 7.95646484 -2 9 C-2.99 9.495 -2.99 9.495 -4 10 C-4 7.03 -4 4.06 -4 1 C-2 0 -2 0 0 0 Z " fill="#9F7ED6" transform="translate(304,392)"/>
<path d="M0 0 C-3.00440021 2.00293347 -4.70993945 2.49271626 -8.1875 3.125 C-9.53908203 3.37636719 -9.53908203 3.37636719 -10.91796875 3.6328125 C-11.60503906 3.75398438 -12.29210937 3.87515625 -13 4 C-12.67 3.01 -12.34 2.02 -12 1 C-8.32433144 -0.61729417 -3.92760325 -0.06546005 0 0 Z " fill="#A37FD4" transform="translate(181,361)"/>
<path d="M0 0 C3.29078593 2.79716804 5.06305458 6.19528578 7 10 C6.67 10.66 6.34 11.32 6 12 C5.01 11.67 4.02 11.34 3 11 C2.3125 8.9375 2.3125 8.9375 2 7 C1.67 7 1.34 7 1 7 C0.67 4.69 0.34 2.38 0 0 Z " fill="#BB9CE5" transform="translate(197,285)"/>
<path d="M0 0 C0.99 0.495 0.99 0.495 2 1 C3.17169312 4.98375661 3.08089427 8.87439224 3 13 C2.34 13 1.68 13 1 13 C0.67 8.71 0.34 4.42 0 0 Z " fill="#AB8AD4" transform="translate(76,271)"/>
<path d="M0 0 C1.12894876 0.93274109 2.25300876 1.87140122 3.375 2.8125 C4.00148438 3.33457031 4.62796875 3.85664063 5.2734375 4.39453125 C7 6 7 6 9 9 C7.35 8.67 5.7 8.34 4 8 C4 7.34 4 6.68 4 6 C3.01 6 2.02 6 1 6 C0.67 4.02 0.34 2.04 0 0 Z " fill="#A685DA" transform="translate(385,258)"/>
<path d="M0 0 C2.31 0.33 4.62 0.66 7 1 C4.47043472 4.0916909 1.77545388 4.90931332 -2 6 C-1.34 4.02 -0.68 2.04 0 0 Z " fill="#A785DF" transform="translate(241,165)"/>
<path d="M0 0 C1.21065165 3.63195496 0.62784815 5.06531629 -0.4375 8.6875 C-0.86869141 10.17830078 -0.86869141 10.17830078 -1.30859375 11.69921875 C-1.53675781 12.45847656 -1.76492187 13.21773437 -2 14 C-4 11 -4 11 -3.7578125 8.73828125 C-3.44457031 7.53751953 -3.44457031 7.53751953 -3.125 6.3125 C-2.92132813 5.50425781 -2.71765625 4.69601563 -2.5078125 3.86328125 C-2.34023437 3.24839844 -2.17265625 2.63351563 -2 2 C-1.34 2 -0.68 2 0 2 C0 1.34 0 0.68 0 0 Z " fill="#AD8CD8" transform="translate(189,110)"/>
<path d="M0 0 C0.33 0.66 0.66 1.32 1 2 C1.66 2.33 2.32 2.66 3 3 C-3.5 6 -3.5 6 -8 6 C-8 5.34 -8 4.68 -8 4 C-7.01 4 -6.02 4 -5 4 C-5 3.34 -5 2.68 -5 2 C-3.35 2 -1.7 2 0 2 C0 1.34 0 0.68 0 0 Z " fill="#946FD2" transform="translate(204,349)"/>
<path d="M0 0 C0.68707555 2.49064888 1 4.37886292 1 7 C0.34 7 -0.32 7 -1 7 C-1.33 7.66 -1.66 8.32 -2 9 C-3.32 8.67 -4.64 8.34 -6 8 C-5.38125 7.236875 -4.7625 6.47375 -4.125 5.6875 C-1.94402948 3.00374191 -1.94402948 3.00374191 0 0 Z " fill="#AE8DE1" transform="translate(290,306)"/>
<path d="M0 0 C0.33 1.32 0.66 2.64 1 4 C0.34 4 -0.32 4 -1 4 C-1.0825 4.94875 -1.165 5.8975 -1.25 6.875 C-2 10 -2 10 -4.0625 11.375 C-4.701875 11.58125 -5.34125 11.7875 -6 12 C-4.43358249 7.69235185 -2.31663844 3.93828536 0 0 Z " fill="#B198D8" transform="translate(306,278)"/>
<path d="M0 0 C2.96404505 2.80804268 5.44499019 5.18315774 7 9 C4.69 8.34 2.38 7.68 0 7 C0.2784375 6.1028125 0.2784375 6.1028125 0.5625 5.1875 C1.22093687 2.83591238 1.22093687 2.83591238 0 0 Z " fill="#AE89E3" transform="translate(396,269)"/>
<path d="M0 0 C1 2 1 2 0.25 4.5625 C-1 7 -1 7 -4 8 C-4.66 8.66 -5.32 9.32 -6 10 C-5.125 5.25 -5.125 5.25 -4 3 C-3.01 3 -2.02 3 -1 3 C-0.67 2.01 -0.34 1.02 0 0 Z " fill="#9D78D9" transform="translate(93,175)"/>
<path d="M0 0 C0.53625 0.226875 1.0725 0.45375 1.625 0.6875 C-0.375 3.6875 -0.375 3.6875 -3.375 4.5 C-4.365 4.561875 -5.355 4.62375 -6.375 4.6875 C-7.035 4.0275 -7.695 3.3675 -8.375 2.6875 C-2.95961538 -0.38942308 -2.95961538 -0.38942308 0 0 Z " fill="#9B73D2" transform="translate(280.375,155.3125)"/>
<path d="M0 0 C1 2 1 2 0.22265625 4.6015625 C-0.16019531 5.59929687 -0.54304687 6.59703125 -0.9375 7.625 C-1.50791016 9.12933594 -1.50791016 9.12933594 -2.08984375 10.6640625 C-2.39019531 11.43492188 -2.69054687 12.20578125 -3 13 C-3.33 13 -3.66 13 -4 13 C-3.85831863 11.56208484 -3.71148957 10.1246763 -3.5625 8.6875 C-3.48128906 7.88699219 -3.40007812 7.08648437 -3.31640625 6.26171875 C-3 4 -3 4 -2 1 C-1.34 0.67 -0.68 0.34 0 0 Z " fill="#AC8ADC" transform="translate(194,97)"/>
<path d="M0 0 C0.33 0 0.66 0 1 0 C1.33 2.64 1.66 5.28 2 8 C2.66 8 3.32 8 4 8 C3.34 9.65 2.68 11.3 2 13 C1.01 13 0.02 13 -1 13 C-0.67 8.71 -0.34 4.42 0 0 Z " fill="#BB96EB" transform="translate(320,336)"/>
<path d="M0 0 C0.99 0.33 1.98 0.66 3 1 C0.14693203 3.32472205 -2.54074837 4.7508258 -6 6 C-6.99 5.01 -7.98 4.02 -9 3 C-4.545 2.505 -4.545 2.505 0 2 C0 1.34 0 0.68 0 0 Z " fill="#926CD2" transform="translate(269,316)"/>
<path d="M0 0 C2.50037734 2.17424117 3.43628586 3.73045798 4 7 C3.01 7.495 3.01 7.495 2 8 C-0.625 6.5625 -0.625 6.5625 -3 5 C-2.01 4.67 -1.02 4.34 0 4 C0 2.68 0 1.36 0 0 Z " fill="#B4A4D3" transform="translate(204,297)"/>
<path d="M0 0 C4.28477792 2.30718811 7.72291137 4.32966073 11 8 C9.68428397 7.7452486 8.37239624 7.47065859 7.0625 7.1875 C6.33160156 7.03667969 5.60070312 6.88585937 4.84765625 6.73046875 C4.23792969 6.48941406 3.62820313 6.24835938 3 6 C2.67 5.01 2.34 4.02 2 3 C1.34 2.67 0.68 2.34 0 2 C0 1.34 0 0.68 0 0 Z " fill="#B89FE1" transform="translate(350,230)"/>
<path d="M0 0 C1.32 0.66 2.64 1.32 4 2 C3.34 3.32 2.68 4.64 2 6 C1.34 6 0.68 6 0 6 C0 5.34 0 4.68 0 4 C-0.99 4 -1.98 4 -3 4 C-3 3.34 -3 2.68 -3 2 C-2.01 1.34 -1.02 0.68 0 0 Z " fill="#7945D9" transform="translate(132,121)"/>
<path d="M0 0 C1.46726798 3.81489674 0.43336419 6.29011622 -1 10 C-1.66 10 -2.32 10 -3 10 C-3 10.99 -3 11.98 -3 13 C-3.66 13 -4.32 13 -5 13 C-4.54554036 11.58208592 -4.08625056 10.16571954 -3.625 8.75 C-3.24214844 7.56664062 -3.24214844 7.56664062 -2.8515625 6.359375 C-2.04826333 4.13372042 -1.10288338 2.09068328 0 0 Z " fill="#C6ACE6" transform="translate(306,398)"/>
<path d="M0 0 C1.9375 0.6875 1.9375 0.6875 4 2 C4.75 4.625 4.75 4.625 5 7 C2.11562221 5.70700306 0.12780579 4.34058637 -2 2 C-1.34 2 -0.68 2 0 2 C0 1.34 0 0.68 0 0 Z " fill="#9571DB" transform="translate(144,386)"/>
<path d="M0 0 C0.36279456 1.28926992 0.71496698 2.58153272 1.0625 3.875 C1.25972656 4.59429687 1.45695312 5.31359375 1.66015625 6.0546875 C2 8 2 8 1 10 C0.67 9.01 0.34 8.02 0 7 C-0.66 7 -1.32 7 -2 7 C-2.66 5.35 -3.32 3.7 -4 2 C-1 0 -1 0 0 0 Z " fill="#7443CA" transform="translate(110,346)"/>
<path d="M0 0 C0 0.66 0 1.32 0 2 C-0.99 2 -1.98 2 -3 2 C-3 3.32 -3 4.64 -3 6 C-7 6 -7 6 -10 4 C-8.71086513 3.32845067 -7.41859796 2.66291141 -6.125 2 C-5.40570313 1.62875 -4.68640625 1.2575 -3.9453125 0.875 C-2 0 -2 0 0 0 Z " fill="#B395E2" transform="translate(237,342)"/>
<path d="M0 0 C0.268125 0.556875 0.53625 1.11375 0.8125 1.6875 C2.00329541 4.09821537 2.00329541 4.09821537 3.6875 6.625 C4.120625 7.40875 4.55375 8.1925 5 9 C4.67 9.66 4.34 10.32 4 11 C1.23636467 8.50381325 -0.63219364 6.80066568 -1 3 C-0.67 2.01 -0.34 1.02 0 0 Z " fill="#9671D0" transform="translate(99,334)"/>
<path d="M0 0 C3.3 0 6.6 0 10 0 C7.8125 2.0625 7.8125 2.0625 5 4 C2.1875 3.75 2.1875 3.75 0 3 C0 2.01 0 1.02 0 0 Z " fill="#8558DB" transform="translate(253,322)"/>
<path d="M0 0 C1.27450447 0.59638333 2.54446877 1.20247416 3.8125 1.8125 C4.52019531 2.14894531 5.22789062 2.48539062 5.95703125 2.83203125 C8.01129035 4.00645471 9.41616278 5.25628016 11 7 C8.69 6.67 6.38 6.34 4 6 C4 5.34 4 4.68 4 4 C3.34 4 2.68 4 2 4 C2 3.34 2 2.68 2 2 C1.34 2 0.68 2 0 2 C0 1.34 0 0.68 0 0 Z " fill="#AE93DE" transform="translate(158,281)"/>
<path d="M0 0 C2.5 2.3125 2.5 2.3125 5 5 C5 5.99 5 6.98 5 8 C4.01 8 3.02 8 2 8 C1.34 5.36 0.68 2.72 0 0 Z " fill="#A483DC" transform="translate(403,278)"/>
<path d="M0 0 C-0.928125 0.598125 -1.85625 1.19625 -2.8125 1.8125 C-5.20254718 3.45272845 -7.08470253 4.8718917 -9 7 C-8.34 4.69 -7.68 2.38 -7 0 C-2.25 -1.125 -2.25 -1.125 0 0 Z " fill="#C1A8E6" transform="translate(221,183)"/>
<path d="M0 0 C2.94721162 2.74395564 5.19168608 5.38337216 7 9 C6.67 9.66 6.34 10.32 6 11 C5.34 10.67 4.68 10.34 4 10 C4 9.34 4 8.68 4 8 C3.34 8 2.68 8 2 8 C1.34 5.36 0.68 2.72 0 0 Z " fill="#AF8EDA" transform="translate(395,152)"/>
<path d="M0 0 C-0.99 0.33 -1.98 0.66 -3 1 C-3 1.66 -3 2.32 -3 3 C-5.31 3.33 -7.62 3.66 -10 4 C-10.33 3.34 -10.66 2.68 -11 2 C-9.54494642 1.47007308 -8.08581873 0.9513211 -6.625 0.4375 C-5.81289063 0.14746094 -5.00078125 -0.14257812 -4.1640625 -0.44140625 C-2 -1 -2 -1 0 0 Z " fill="#A481D8" transform="translate(316,141)"/>
<path d="M0 0 C1.65 0 3.3 0 5 0 C5 0.66 5 1.32 5 2 C6.65 2 8.3 2 10 2 C8 4 8 4 4.875 4.125 C3.92625 4.08375 2.9775 4.0425 2 4 C1.34 2.68 0.68 1.36 0 0 Z " fill="#7941CF" transform="translate(294,136)"/>
<path d="M0 0 C0.66 0 1.32 0 2 0 C2.29296875 6.0546875 2.29296875 6.0546875 2 8 C1.01 8.66 0.02 9.32 -1 10 C-1.125 2.25 -1.125 2.25 0 0 Z " fill="#7547C9" transform="translate(194,114)"/>
<path d="M0 0 C-1.66215268 1.33895632 -3.32963607 2.67130142 -5 4 C-6.0828125 4.86625 -6.0828125 4.86625 -7.1875 5.75 C-9 7 -9 7 -11 7 C-8.76456876 1.59770784 -5.88000164 -0.49000014 0 0 Z " fill="#7241CC" transform="translate(149,111)"/>
<path d="M0 0 C0.66 1.32 1.32 2.64 2 4 C0.35 5.32 -1.3 6.64 -3 8 C-3.33 6.35 -3.66 4.7 -4 3 C-3.34 2.67 -2.68 2.34 -2 2 C-1.34 2.33 -0.68 2.66 0 3 C0 2.01 0 1.02 0 0 Z " fill="#916CD6" transform="translate(291,413)"/>
<path d="M0 0 C1.65 0 3.3 0 5 0 C5.33 0.66 5.66 1.32 6 2 C6.99 2.66 7.98 3.32 9 4 C6.03 3.67 3.06 3.34 0 3 C0 2.01 0 1.02 0 0 Z " fill="#8964D0" transform="translate(178,408)"/>
<path d="M0 0 C2.9375 1.125 2.9375 1.125 6 3 C6.875 6.1875 6.875 6.1875 7 9 C4.03595495 6.19195732 1.55500981 3.81684226 0 0 Z " fill="#B397DB" transform="translate(402,269)"/>
<path d="M0 0 C3.26460973 1.80412643 4.88929795 2.83394693 7 6 C6.01 6.33 5.02 6.66 4 7 C1.49962266 4.82575883 0.56371414 3.26954202 0 0 Z " fill="#A98CD7" transform="translate(123,255)"/>
<path d="M0 0 C1.32 0 2.64 0 4 0 C5.06775224 1.96466413 6.06553465 3.96855359 7 6 C6.67 6.66 6.34 7.32 6 8 C4.9970458 6.85675161 3.99770973 5.71032809 3 4.5625 C2.443125 3.92441406 1.88625 3.28632813 1.3125 2.62890625 C0 1 0 1 0 0 Z " fill="#AE91DC" transform="translate(98,224)"/>
<path d="M0 0 C0 3.39593478 -0.52165948 4.06619881 -2.5 6.6875 C-2.9640625 7.31011719 -3.428125 7.93273437 -3.90625 8.57421875 C-4.2671875 9.04472656 -4.628125 9.51523437 -5 10 C-6 7 -6 7 -5 4 C-4.01 4 -3.02 4 -2 4 C-2 3.01 -2 2.02 -2 1 C-1.34 0.67 -0.68 0.34 0 0 Z " fill="#AB8DDA" transform="translate(396,345)"/>
<path d="M0 0 C0.66 0.66 1.32 1.32 2 2 C0.8125 3.5 0.8125 3.5 -1 5 C-3.6875 5.1875 -3.6875 5.1875 -6 5 C-6 4.34 -6 3.68 -6 3 C-5.01 3 -4.02 3 -3 3 C-3 2.34 -3 1.68 -3 1 C-2.01 0.67 -1.02 0.34 0 0 Z " fill="#7644CE" transform="translate(230,346)"/>
<path d="M0 0 C0.99 0 1.98 0 3 0 C4.85776765 3.13498292 5.20140476 5.37471432 5 9 C1.9083091 6.47043472 1.09068668 3.77545388 0 0 Z " fill="#A682DB" transform="translate(93,328)"/>
<path d="M0 0 C1.37432457 3.81756824 0.67975039 7.07255329 0 11 C-0.66 11 -1.32 11 -2 11 C-1.67 9.68 -1.34 8.36 -1 7 C-1.66 7 -2.32 7 -3 7 C-1.125 2.25 -1.125 2.25 0 0 Z " fill="#9772D7" transform="translate(294,299)"/>
<path d="M0 0 C3.68802044 1.22934015 4.72356973 2.93859378 7 6 C6.01 6.495 6.01 6.495 5 7 C1.26360784 5.75453595 0.81243487 4.36595047 -1 1 C-0.67 0.67 -0.34 0.34 0 0 Z " fill="#764BC4" transform="translate(131,252)"/>
<path d="M0 0 C0.33 0 0.66 0 1 0 C1.25028811 1.58013217 1.47440946 3.16442306 1.6875 4.75 C1.87892578 6.07257813 1.87892578 6.07257813 2.07421875 7.421875 C1.98397191 10.55676517 1.07384637 11.71823587 -1 14 C-1.08333357 9.1666528 -0.95261487 4.76307437 0 0 Z " fill="#CCB0EF" transform="translate(76,222)"/>
<path d="M0 0 C0.598125 0.350625 1.19625 0.70125 1.8125 1.0625 C1.8125 2.0525 1.8125 3.0425 1.8125 4.0625 C0.1625 4.0625 -1.4875 4.0625 -3.1875 4.0625 C-3.8475 2.7425 -4.5075 1.4225 -5.1875 0.0625 C-2.1875 -0.9375 -2.1875 -0.9375 0 0 Z " fill="#7743CD" transform="translate(101.1875,219.9375)"/>
<path d="M0 0 C4.75 0.75 4.75 0.75 7 3 C7 3.99 7 4.98 7 6 C2.32307692 4.52307692 2.32307692 4.52307692 0.6875 1.875 C0.460625 1.25625 0.23375 0.6375 0 0 Z " fill="#9773D5" transform="translate(341,217)"/>
<path d="M0 0 C0.66 0.33 1.32 0.66 2 1 C1.67 2.65 1.34 4.3 1 6 C-0.32 6 -1.64 6 -3 6 C-2.625 3.5625 -2.625 3.5625 -2 1 C-1.34 0.67 -0.68 0.34 0 0 Z " fill="#9872D7" transform="translate(233,179)"/>
<path d="M0 0 C1.65 0 3.3 0 5 0 C4.67 1.32 4.34 2.64 4 4 C2.68 4 1.36 4 0 4 C0 2.68 0 1.36 0 0 Z " fill="#7A39F1" transform="translate(228,163)"/>
<path d="M0 0 C0.66 0.33 1.32 0.66 2 1 C2 1.99 2 2.98 2 4 C0.02 4.66 -1.96 5.32 -4 6 C-4.33 5.01 -4.66 4.02 -5 3 C-2.625 1.4375 -2.625 1.4375 0 0 Z " fill="#A182D8" transform="translate(243,338)"/>
<path d="M0 0 C2.12046792 3.53411321 2.53199289 6.94393835 3 11 C2.01 11.495 2.01 11.495 1 12 C-0.3271261 8.0186217 -0.06915913 4.14954773 0 0 Z " fill="#7B51CB" transform="translate(421,220)"/>
<path d="M0 0 C1.65 0 3.3 0 5 0 C4.67 1.32 4.34 2.64 4 4 C2.68 4.33 1.36 4.66 0 5 C0 3.33333333 0 1.66666667 0 0 Z " fill="#7347C6" transform="translate(217,178)"/>
<path d="M0 0 C0.66 0.33 1.32 0.66 2 1 C0.06745228 3.0245738 -1.63158688 4.42105792 -4 6 C-6.1875 5.625 -6.1875 5.625 -8 5 C-6.71475739 4.13619741 -5.42157581 3.28419631 -4.125 2.4375 C-3.04605469 1.72400391 -3.04605469 1.72400391 -1.9453125 0.99609375 C-1.30335938 0.66738281 -0.66140625 0.33867187 0 0 Z " fill="#C0A5E7" transform="translate(250,169)"/>
<path d="M0 0 C2 3 2 3 1.8125 6.0625 C1 9 1 9 -2 11 C-1.125 3.375 -1.125 3.375 0 0 Z " fill="#B495E2" transform="translate(192,117)"/>
<path d="M0 0 C1.32 0.33 2.64 0.66 4 1 C3.25 2.9375 3.25 2.9375 2 5 C-0.125 5.75 -0.125 5.75 -2 6 C-1.34 4.02 -0.68 2.04 0 0 Z " fill="#9971D3" transform="translate(339,396)"/>
<path d="M0 0 C0.66 0 1.32 0 2 0 C2 1.98 2 3.96 2 6 C-0.475 5.01 -0.475 5.01 -3 4 C-2.67 3.34 -2.34 2.68 -2 2 C-1.34 2 -0.68 2 0 2 C0 1.34 0 0.68 0 0 Z " fill="#8F63DC" transform="translate(190,290)"/>
<path d="M0 0 C1.98 0.495 1.98 0.495 4 1 C3.67 2.65 3.34 4.3 3 6 C1.68 6 0.36 6 -1 6 C-0.67 4.02 -0.34 2.04 0 0 Z " fill="#7740D2" transform="translate(390,266)"/>
<path d="M0 0 C0.99 0.33 1.98 0.66 3 1 C2.67 2.32 2.34 3.64 2 5 C0.68 5.33 -0.64 5.66 -2 6 C-2 2 -2 2 0 0 Z " fill="#9264DB" transform="translate(130,261)"/>
<path d="M0 0 C2.76276177 0.52268466 5.3260876 1.10869587 8 2 C7.67 2.99 7.34 3.98 7 5 C4.11562221 3.70700306 2.12780579 2.34058637 0 0 Z " fill="#A383D6" transform="translate(355,228)"/>
<path d="M0 0 C1.65 0 3.3 0 5 0 C3.92598892 2.91517292 3.22189824 4.77810176 1 7 C0.67 4.69 0.34 2.38 0 0 Z " fill="#9D78DB" transform="translate(195,210)"/>
<path d="M0 0 C3.04470873 1.52235436 4.20270948 4.18424486 6 7 C2.62496331 5.8141763 0.35277269 4.72426311 -2 2 C-1.34 2 -0.68 2 0 2 C0 1.34 0 0.68 0 0 Z " fill="#AC90E0" transform="translate(325,205)"/>
<path d="M0 0 C0.99 0.66 1.98 1.32 3 2 C1.3125 3.5625 1.3125 3.5625 -1 5 C-3.75 4.6875 -3.75 4.6875 -6 4 C-4.68 3.67 -3.36 3.34 -2 3 C-2 2.34 -2 1.68 -2 1 C-1.34 0.67 -0.68 0.34 0 0 Z " fill="#783FCB" transform="translate(289,151)"/>
<path d="M0 0 C0.66 0.33 1.32 0.66 2 1 C2 1.66 2 2.32 2 3 C-2.95 3 -7.9 3 -13 3 C-13 2.67 -13 2.34 -13 2 C-12.14535156 1.93941406 -11.29070312 1.87882812 -10.41015625 1.81640625 C-8.75306641 1.69072266 -8.75306641 1.69072266 -7.0625 1.5625 C-5.96035156 1.48128906 -4.85820312 1.40007812 -3.72265625 1.31640625 C-1.08890097 1.29581916 -1.08890097 1.29581916 0 0 Z " fill="#6E4CA7" transform="translate(368,122)"/>
<path d="M0 0 C0 0.66 0 1.32 0 2 C-0.99 2 -1.98 2 -3 2 C-2.67 2.99 -2.34 3.98 -2 5 C-2.66 5.66 -3.32 6.32 -4 7 C-4.99 6.01 -5.98 5.02 -7 4 C-2.25 0 -2.25 0 0 0 Z " fill="#A27ED7" transform="translate(170,94)"/>
<path d="M0 0 C0.99 0.33 1.98 0.66 3 1 C1.8141763 4.37503669 0.72426311 6.64722731 -2 9 C-1.41196203 5.97580475 -0.77321882 2.98241547 0 0 Z " fill="#A98ADB" transform="translate(295,406)"/>
<path d="M0 0 C5.53846154 0.61538462 5.53846154 0.61538462 7.875 2.5625 C8.431875 3.2740625 8.431875 3.2740625 9 4 C8.01 4.495 8.01 4.495 7 5 C4.5249829 3.88568235 2.32116581 2.41849022 0 1 C0 0.67 0 0.34 0 0 Z " fill="#AC90DD" transform="translate(165,403)"/>
<path d="M0 0 C2.475 0.495 2.475 0.495 5 1 C5 1.66 5 2.32 5 3 C5.66 3.33 6.32 3.66 7 4 C5.02 4 3.04 4 1 4 C0.67 2.68 0.34 1.36 0 0 Z " fill="#7C4FCA" transform="translate(162,399)"/>
<path d="M0 0 C0.66 0.33 1.32 0.66 2 1 C0.8125 3 0.8125 3 -1 5 C-3.6875 5.25 -3.6875 5.25 -6 5 C-2.25 1.125 -2.25 1.125 0 0 Z " fill="#AC8FD6" transform="translate(276,319)"/>
<path d="M0 0 C2 1.8125 2 1.8125 4 4 C4 4.99 4 5.98 4 7 C3.01 7 2.02 7 1 7 C0.67 4.69 0.34 2.38 0 0 Z " fill="#7440CE" transform="translate(400,276)"/>
<path d="M0 0 C1.1446875 0.2475 1.1446875 0.2475 2.3125 0.5 C5.03596236 1.09145396 5.03596236 1.09145396 8 1 C6 4 6 4 3.875 4.6875 C3.25625 4.790625 2.6375 4.89375 2 5 C1.34 3.35 0.68 1.7 0 0 Z " fill="#7540D6" transform="translate(159,272)"/>
<path d="M0 0 C2.375 0.1875 2.375 0.1875 5 1 C6.3125 3.5625 6.3125 3.5625 7 6 C2.32307692 4.52307692 2.32307692 4.52307692 0.6875 1.875 C0.460625 1.25625 0.23375 0.6375 0 0 Z " fill="#9570D0" transform="translate(154,271)"/>
<path d="M0 0 C4.22797927 3.08290155 4.22797927 3.08290155 6 5 C6.375 7.8125 6.375 7.8125 6 10 C3.38275905 7.63202009 1.67138271 5.10399646 0 2 C0 1.34 0 0.68 0 0 Z " fill="#D2B8EB" transform="translate(298,207)"/>
<path d="M0 0 C0.33 0.66 0.66 1.32 1 2 C1.66 2 2.32 2 3 2 C3 3.98 3 5.96 3 8 C0.52557871 5.84832931 -0.56238367 4.28212246 -1 1 C-0.67 0.67 -0.34 0.34 0 0 Z " fill="#A67FDA" transform="translate(88,206)"/>
<path d="M0 0 C0.99 0.495 0.99 0.495 2 1 C2.73075648 3.3140622 3.40138258 5.64828869 4 8 C3.01 8 2.02 8 1 8 C-0.35439668 5.29120665 -0.06501451 2.99066732 0 0 Z " fill="#7647C8" transform="translate(412,187)"/>
<path d="M0 0 C0.33 0.66 0.66 1.32 1 2 C3.02463255 2.65213292 3.02463255 2.65213292 5 3 C5.33 4.65 5.66 6.3 6 8 C5.01 7.67 4.02 7.34 3 7 C3 6.01 3 5.02 3 4 C2.01 3.67 1.02 3.34 0 3 C0 2.01 0 1.02 0 0 Z " fill="#9872DA" transform="translate(408,180)"/>
<path d="M0 0 C2.02045442 0.60183749 4.02111039 1.27306096 6 2 C6.33 2.66 6.66 3.32 7 4 C5.02 4 3.04 4 1 4 C0.67 2.68 0.34 1.36 0 0 Z " fill="#AF8ADD" transform="translate(332,95)"/>
<path d="M0 0 C0.66 0 1.32 0 2 0 C0.60667426 3.36720387 -0.9789286 4.9859524 -4 7 C-4 5.68 -4 4.36 -4 3 C-2.68 2.67 -1.36 2.34 0 2 C0 1.34 0 0.68 0 0 Z " fill="#906ECA" transform="translate(367,377)"/>
<path d="M0 0 C1.5625 1.25 1.5625 1.25 3 3 C2.6875 5.1875 2.6875 5.1875 2 7 C0.68 5.35 -0.64 3.7 -2 2 C-1.34 1.34 -0.68 0.68 0 0 Z " fill="#9570D1" transform="translate(116,359)"/>
<path d="M0 0 C-0.60183749 2.02045442 -1.27306096 4.02111039 -2 6 C-2.99 6.495 -2.99 6.495 -4 7 C-4 5.02 -4 3.04 -4 1 C-2 0 -2 0 0 0 Z " fill="#A484D3" transform="translate(403,335)"/>
<path d="M0 0 C0.99 0 1.98 0 3 0 C3 1.32 3 2.64 3 4 C2.34 4 1.68 4 1 4 C0.67 4.99 0.34 5.98 0 7 C-0.93423645 3.98968256 -1.04449911 3.13349732 0 0 Z " fill="#7441CA" transform="translate(86,304)"/>
<path d="M0 0 C0.33 0 0.66 0 1 0 C1 2.64 1 5.28 1 8 C-1.2477975 5.94766315 -2.0022242 4.99332739 -3 2 C-2.01 2 -1.02 2 0 2 C0 1.34 0 0.68 0 0 Z " fill="#724EB1" transform="translate(419,285)"/>
<path d="M0 0 C2.50037734 2.17424117 3.43628586 3.73045798 4 7 C1.525 6.01 1.525 6.01 -1 5 C-0.67 3.35 -0.34 1.7 0 0 Z " fill="#B093DE" transform="translate(189,271)"/>
<path d="M0 0 C0.66 0 1.32 0 2 0 C2 2.31 2 4.62 2 7 C1.01 6.67 0.02 6.34 -1 6 C-1.042721 4.33388095 -1.04063832 2.66617115 -1 1 C-0.67 0.67 -0.34 0.34 0 0 Z " fill="#8769C4" transform="translate(316,261)"/>
<path d="M0 0 C0 0.99 0 1.98 0 3 C-2.31 2.67 -4.62 2.34 -7 2 C-7 1.34 -7 0.68 -7 0 C-4.3333581 -1.33332095 -2.83319697 -0.67102033 0 0 Z " fill="#9065DC" transform="translate(183,259)"/>
<path d="M0 0 C0.66 0 1.32 0 2 0 C2.625 1.875 2.625 1.875 3 4 C2.34 4.66 1.68 5.32 1 6 C0.34 5.67 -0.32 5.34 -1 5 C-0.67 3.35 -0.34 1.7 0 0 Z " fill="#8355C9" transform="translate(322,243)"/>
<path d="M0 0 C0.33 0.99 0.66 1.98 1 3 C0.01 3.99 -0.98 4.98 -2 6 C-3.32 4.35 -4.64 2.7 -6 1 C-3.03 1.495 -3.03 1.495 0 2 C0 1.34 0 0.68 0 0 Z " fill="#9C75D9" transform="translate(111,231)"/>
<path d="M0 0 C0.99 0 1.98 0 3 0 C4.75 2.375 4.75 2.375 6 5 C5.67 5.66 5.34 6.32 5 7 C3.29115995 5.37660195 1.62553283 3.70680947 0 2 C0 1.34 0 0.68 0 0 Z " fill="#7847CC" transform="translate(303,213)"/>
<path d="M0 0 C3.37503669 1.1858237 5.64722731 2.27573689 8 5 C7.01 5.495 7.01 5.495 6 6 C6 5.34 6 4.68 6 4 C4.35 4 2.7 4 1 4 C0.67 2.68 0.34 1.36 0 0 Z " fill="#B48FE1" transform="translate(300,199)"/>
<path d="M0 0 C2.31 0 4.62 0 7 0 C2.25 4 2.25 4 0 4 C0 2.68 0 1.36 0 0 Z " fill="#A382D9" transform="translate(250,161)"/>
<path d="M0 0 C1.65 0.99 3.3 1.98 5 3 C4.67 4.32 4.34 5.64 4 7 C0 2.25 0 2.25 0 0 Z " fill="#8B69D2" transform="translate(388,144)"/>
<path d="M0 0 C1.65 1.32 3.3 2.64 5 4 C4.67 4.99 4.34 5.98 4 7 C3.01 6.67 2.02 6.34 1 6 C0.67 4.02 0.34 2.04 0 0 Z " fill="#9877D4" transform="translate(381,134)"/>
<path d="M0 0 C0.66 0 1.32 0 2 0 C1.74438677 2.3431213 1.40729228 4.67843403 1 7 C0.01 7.495 0.01 7.495 -1 8 C-1.04241723 5.66705225 -1.04092937 3.33297433 -1 1 C-0.67 0.67 -0.34 0.34 0 0 Z " fill="#734AC2" transform="translate(184,121)"/>
<path d="M0 0 C0.33 0 0.66 0 1 0 C1 2.31 1 4.62 1 7 C0.01 7 -0.98 7 -2 7 C-1.125 1.125 -1.125 1.125 0 0 Z " fill="#8D6BD1" transform="translate(207,84)"/>
</svg>
